<svg width="424" height="192" viewBox="0 0 424 192" fill="none" xmlns="http://www.w3.org/2000/svg">
<path d="M72 8C90.7909 8 106.985 18.8913 118.151 34.8438C129.336 50.8215 136 72.4685 136 96C136 119.531 129.336 141.178 118.151 157.156C106.985 173.109 90.7909 184 72 184C53.2091 184 37.0154 173.109 25.8486 157.156C14.6642 141.178 8 119.531 8 96C8 72.4685 14.6642 50.8215 25.8486 34.8438C37.0154 18.8913 53.2091 8 72 8Z" fill="white" stroke="black" stroke-width="16"/>
<path d="M352 8C370.791 8 386.985 18.8913 398.151 34.8438C409.336 50.8215 416 72.4685 416 96C416 119.531 409.336 141.178 398.151 157.156C386.985 173.109 370.791 184 352 184C333.209 184 317.015 173.109 305.849 157.156C294.664 141.178 288 119.531 288 96C288 72.4685 294.664 50.8215 305.849 34.8438C317.015 18.8913 333.209 8 352 8Z" fill="white" stroke="black" stroke-width="16"/>
</svg>