<svg width="529" height="220" viewBox="0 0 529 220" fill="none" xmlns="http://www.w3.org/2000/svg">

<path d="M75.4832 28.681C78.7188 5.65795 109.525 0.225926 120.44 20.7539L132.151 42.7794C137.033 51.9598 147.27 56.9529 157.51 55.1474L182.076 50.8157C204.972 46.7785 219.658 74.3987 203.508 91.1229L186.179 109.067C178.957 116.546 177.371 127.826 182.253 137.006L193.964 159.032C204.879 179.56 183.149 202.062 162.252 191.87L139.832 180.935C130.486 176.377 119.269 178.355 112.046 185.834L94.7179 203.778C78.5676 220.502 50.4517 206.789 53.6873 183.766L57.1591 159.064C58.6061 148.767 53.2587 138.71 43.9135 134.152L21.4928 123.217C0.596395 113.025 4.94999 82.0478 27.8461 78.0106L52.4125 73.6789C62.652 71.8734 70.5644 63.6799 72.0114 53.3837L75.4832 28.681Z" fill="#FFD591"/>

<path d="M75.4832 28.681C78.7188 5.65795 109.525 0.225926 120.44 20.7539L132.151 42.7794C137.033 51.9598 147.27 56.9529 157.51 55.1474L182.076 50.8157C204.972 46.7785 219.658 74.3987 203.508 91.1229L186.179 109.067C178.957 116.546 177.371 127.826 182.253 137.006L193.964 159.032C204.879 179.56 183.149 202.062 162.252 191.87L139.832 180.935C130.486 176.377 119.269 178.355 112.046 185.834L94.7179 203.778C78.5676 220.502 50.4517 206.789 53.6873 183.766L57.1591 159.064C58.6061 148.767 53.2587 138.71 43.9135 134.152L21.4928 123.217C0.596395 113.025 4.94999 82.0478 27.8461 78.0106L52.4125 73.6789C62.652 71.8734 70.5644 63.6799 72.0114 53.3837L75.4832 28.681Z" stroke="black" stroke-width="16"/>

<path d="M407.653 20.7539C418.568 0.225957 449.375 5.65799 452.61 28.6811L456.082 53.3837C457.529 63.68 465.442 71.8734 475.681 73.6789L500.247 78.0107C523.144 82.0479 527.497 113.025 506.601 123.217L484.18 134.152C474.835 138.71 469.487 148.767 470.934 159.064L474.406 183.766C477.642 206.789 449.526 220.502 433.376 203.778L416.047 185.834C408.824 178.355 397.607 176.377 388.262 180.935L365.841 191.87C344.945 202.062 323.215 179.56 334.13 159.032L345.841 137.006C350.722 127.826 349.137 116.546 341.914 109.067L324.586 91.1229C308.435 74.3987 323.121 46.7785 346.017 50.8157L370.584 55.1475C380.823 56.953 391.061 51.9598 395.942 42.7794L407.653 20.7539Z" fill="#FFD591"/>

<path d="M407.653 20.7539C418.568 0.225957 449.375 5.65799 452.61 28.6811L456.082 53.3837C457.529 63.68 465.442 71.8734 475.681 73.6789L500.247 78.0107C523.144 82.0479 527.497 113.025 506.601 123.217L484.18 134.152C474.835 138.71 469.487 148.767 470.934 159.064L474.406 183.766C477.642 206.789 449.526 220.502 433.376 203.778L416.047 185.834C408.824 178.355 397.607 176.377 388.262 180.935L365.841 191.87C344.945 202.062 323.215 179.56 334.13 159.032L345.841 137.006C350.722 127.826 349.137 116.546 341.914 109.067L324.586 91.1229C308.435 74.3987 323.121 46.7785 346.017 50.8157L370.584 55.1475C380.823 56.953 391.061 51.9598 395.942 42.7794L407.653 20.7539Z" stroke="black" stroke-width="16"/>

</svg>