<svg width="704" height="661" viewBox="0 0 704 661" fill="none" xmlns="http://www.w3.org/2000/svg">
<g filter="url(#filter0_ii_207_2522)">
<path d="M272 391.182C272 573.712 221.856 661 160 661C98.1441 661 48 573.712 48 391.182C48 208.652 98.1441 0 160 0C221.856 0 272 208.652 272 391.182Z" fill="#A06A4C"/>
</g>
<path d="M160 12C168.502 12 180.133 19.5943 193.296 41.6113C205.89 62.6767 217.609 93.2711 227.611 130.273C247.573 204.12 260 300.852 260 391.182C260 481.592 247.545 547.126 228.27 589.579C208.949 632.131 184.206 649 160 649C135.794 649 111.051 632.131 91.7305 589.579C72.4546 547.126 60 481.592 60 391.182C60 300.852 72.4267 204.12 92.3887 130.273C102.391 93.2711 114.11 62.6767 126.704 41.6113C139.867 19.5943 151.498 12 160 12Z" stroke="black" stroke-width="24"/>
<g filter="url(#filter1_ii_207_2522)">
<path d="M456 391.182C456 573.712 506.144 661 568 661C629.856 661 680 573.712 680 391.182C680 208.652 629.856 0 568 0C506.144 0 456 208.652 456 391.182Z" fill="#A06A4C"/>
</g>
<path d="M568 12C559.498 12 547.867 19.5943 534.704 41.6113C522.11 62.6767 510.391 93.2711 500.389 130.273C480.427 204.12 468 300.852 468 391.182C468 481.592 480.455 547.126 499.73 589.579C519.051 632.131 543.794 649 568 649C592.206 649 616.949 632.131 636.27 589.579C655.545 547.126 668 481.592 668 391.182C668 300.852 655.573 204.12 635.611 130.273C625.609 93.2711 613.89 62.6767 601.296 41.6113C588.133 19.5943 576.502 12 568 12Z" stroke="black" stroke-width="24"/>
<defs>
<filter id="filter0_ii_207_2522" x="48" y="0" width="224" height="661" filterUnits="userSpaceOnUse" color-interpolation-filters="sRGB">
<feFlood flood-opacity="0" result="BackgroundImageFix"/>
<feBlend mode="normal" in="SourceGraphic" in2="BackgroundImageFix" result="shape"/>
<feColorMatrix in="SourceAlpha" type="matrix" values="0 0 0 0 0 0 0 0 0 0 0 0 0 0 0 0 0 0 127 0" result="hardAlpha"/>
<feOffset dx="-32" dy="32"/>
<feComposite in2="hardAlpha" operator="arithmetic" k2="-1" k3="1"/>
<feColorMatrix type="matrix" values="0 0 0 0 1 0 0 0 0 1 0 0 0 0 1 0 0 0 0.25 0"/>
<feBlend mode="normal" in2="shape" result="effect1_innerShadow_207_2522"/>
<feColorMatrix in="SourceAlpha" type="matrix" values="0 0 0 0 0 0 0 0 0 0 0 0 0 0 0 0 0 0 127 0" result="hardAlpha"/>
<feOffset dx="32" dy="-32"/>
<feComposite in2="hardAlpha" operator="arithmetic" k2="-1" k3="1"/>
<feColorMatrix type="matrix" values="0 0 0 0 0 0 0 0 0 0 0 0 0 0 0 0 0 0 0.25 0"/>
<feBlend mode="normal" in2="effect1_innerShadow_207_2522" result="effect2_innerShadow_207_2522"/>
</filter>
<filter id="filter1_ii_207_2522" x="456" y="0" width="224" height="661" filterUnits="userSpaceOnUse" color-interpolation-filters="sRGB">
<feFlood flood-opacity="0" result="BackgroundImageFix"/>
<feBlend mode="normal" in="SourceGraphic" in2="BackgroundImageFix" result="shape"/>
<feColorMatrix in="SourceAlpha" type="matrix" values="0 0 0 0 0 0 0 0 0 0 0 0 0 0 0 0 0 0 127 0" result="hardAlpha"/>
<feOffset dx="-32" dy="32"/>
<feComposite in2="hardAlpha" operator="arithmetic" k2="-1" k3="1"/>
<feColorMatrix type="matrix" values="0 0 0 0 1 0 0 0 0 1 0 0 0 0 1 0 0 0 0.25 0"/>
<feBlend mode="normal" in2="shape" result="effect1_innerShadow_207_2522"/>
<feColorMatrix in="SourceAlpha" type="matrix" values="0 0 0 0 0 0 0 0 0 0 0 0 0 0 0 0 0 0 127 0" result="hardAlpha"/>
<feOffset dx="32" dy="-32"/>
<feComposite in2="hardAlpha" operator="arithmetic" k2="-1" k3="1"/>
<feColorMatrix type="matrix" values="0 0 0 0 0 0 0 0 0 0 0 0 0 0 0 0 0 0 0.25 0"/>
<feBlend mode="normal" in2="effect1_innerShadow_207_2522" result="effect2_innerShadow_207_2522"/>
</filter>
</defs>
</svg>
