<svg width="737" height="639" viewBox="0 0 737 639" fill="none" xmlns="http://www.w3.org/2000/svg">
<path d="M44.467 12.6213C52.6397 10.2778 65.9136 14.3719 84.6351 31.9079C102.547 48.6859 122.246 74.8649 142.06 107.677C181.603 173.161 220.212 262.72 245.11 349.55C270.03 436.459 276.122 502.887 269.294 549.008C262.451 595.237 243.316 618.273 220.048 624.945C196.78 631.617 168.345 622.221 138.044 586.644C107.814 551.148 77.7781 491.586 52.8574 404.678C27.9594 317.848 13.2417 221.438 12.0754 144.949C11.491 106.623 14.3235 73.9837 20.6229 50.2631C27.207 25.4709 36.2943 14.9647 44.467 12.6213Z" stroke="black" stroke-width="24"/>
<path d="M44.467 12.6213C52.6397 10.2778 65.9136 14.3719 84.6351 31.9079C102.547 48.6859 122.246 74.8649 142.06 107.677C181.603 173.161 220.212 262.72 245.11 349.55C270.03 436.459 276.122 502.887 269.294 549.008C262.451 595.237 243.316 618.273 220.048 624.945C196.78 631.617 168.345 622.221 138.044 586.644C107.814 551.148 77.7781 491.586 52.8574 404.678C27.9594 317.848 13.2417 221.438 12.0754 144.949C11.491 106.623 14.3235 73.9837 20.6229 50.2631C27.207 25.4709 36.2943 14.9647 44.467 12.6213Z" fill="#A06A4C" stroke="black" stroke-width="24"/>
<path d="M55.128 25.2265C59.8401 24.3355 67.538 26.2267 78.1852 34.1313C88.4463 41.7491 99.5364 53.5765 110.208 68.2011C130.063 95.412 147.079 130.375 154.298 161.044C153.776 161.454 153.226 161.891 152.645 162.347C147.961 166.02 141.405 171.131 133.92 176.876C118.897 188.407 100.317 202.349 85.6266 212.382C62.9984 227.837 43.5736 252.85 37.02 288.532C30.6029 259.758 24.995 220.518 22.5645 173.334C20.7842 138.772 21.7167 101.615 27.6148 72.5737C30.5723 58.0112 34.6299 46.2641 39.6689 38.0211C44.648 29.8762 49.87 26.2208 55.128 25.2265Z" fill="black" stroke="black" stroke-width="24"/>
<path d="M692.047 12.6213C683.874 10.2778 670.6 14.3719 651.879 31.9079C633.966 48.6859 614.268 74.8649 594.454 107.677C554.91 173.161 516.302 262.72 491.404 349.55C466.483 436.459 460.392 502.887 467.219 549.008C474.063 595.237 493.197 618.273 516.466 624.945C539.734 631.617 568.168 622.221 598.469 586.644C628.7 551.148 658.736 491.586 683.656 404.678C708.554 317.848 723.272 221.438 724.438 144.949C725.023 106.623 722.19 73.9837 715.891 50.2631C709.307 25.4709 700.219 14.9647 692.047 12.6213Z" stroke="black" stroke-width="24"/>
<path d="M692.047 12.6213C683.874 10.2778 670.6 14.3719 651.879 31.9079C633.966 48.6859 614.268 74.8649 594.454 107.677C554.91 173.161 516.302 262.72 491.404 349.55C466.483 436.459 460.392 502.887 467.219 549.008C474.063 595.237 493.197 618.273 516.466 624.945C539.734 631.617 568.168 622.221 598.469 586.644C628.7 551.148 658.736 491.586 683.656 404.678C708.554 317.848 723.272 221.438 724.438 144.949C725.023 106.623 722.19 73.9837 715.891 50.2631C709.307 25.4709 700.219 14.9647 692.047 12.6213Z" fill="#A06A4C" stroke="black" stroke-width="24"/>
<path d="M681.386 25.2265C676.674 24.3355 668.976 26.2267 658.328 34.1313C648.067 41.7491 636.977 53.5765 626.306 68.2011C606.451 95.412 589.434 130.375 582.216 161.044C582.738 161.454 583.288 161.891 583.869 162.347C588.552 166.02 595.108 171.131 602.594 176.876C617.617 188.407 636.196 202.349 650.887 212.382C673.515 227.837 692.94 252.85 699.494 288.532C705.911 259.758 711.519 220.518 713.949 173.334C715.73 138.772 714.797 101.615 708.899 72.5737C705.941 58.0112 701.884 46.2641 696.845 38.0211C691.866 29.8762 686.644 26.2208 681.386 25.2265Z" fill="black" stroke="black" stroke-width="24"/>
</svg>
