<svg width="320" height="268" viewBox="0 0 320 268" fill="none" xmlns="http://www.w3.org/2000/svg">
<path d="M160 8C201.568 8 239.579 27.9153 267.344 57.0664C295.173 86.285 312 124.042 312 158.604C312 192.528 295.797 217.456 268.896 234.271C241.641 251.307 203.282 260 160 260C116.718 260 78.3592 251.307 51.1035 234.271C24.2033 217.456 8.00008 192.528 8 158.604C8 124.042 24.8272 86.285 52.6563 57.0664C80.4212 27.9153 118.432 8 160 8Z" fill="#F8D5C3" stroke="black" stroke-width="16"/>
<circle cx="67" cy="132" r="13" fill="black"/>
<circle cx="237" cy="132" r="13" fill="black"/>
<path d="M187 183C187 183 174.969 191.478 152 190.979C138.332 190.979 117 183 117 183" stroke="black" stroke-width="8" stroke-linecap="round"/>
</svg>
