<svg width="320" height="300" viewBox="0 0 320 300" fill="none" xmlns="http://www.w3.org/2000/svg">
<path d="M160 292C118.432 292 80.4212 272.085 52.6563 242.934C24.8272 213.715 8.00001 175.958 8.00001 141.396C8.00009 107.472 24.2034 82.5439 51.1035 65.7295C78.3593 48.6929 116.718 40 160 40C203.282 40 241.641 48.6929 268.897 65.7295C295.797 82.5439 312 107.472 312 141.396C312 175.958 295.173 213.715 267.344 242.934C239.579 272.085 201.568 292 160 292Z" fill="#CCA48E" stroke="black" stroke-width="16"/>
<path d="M50 70.2098C50 22.7133 99.2487 3.31233e-07 160 5.64228e-06C220.751 1.09533e-05 270 22.7134 270 70.2098C270 117.706 220.751 172 160 172C99.2487 172 50 117.706 50 70.2098Z" fill="black"/>
<path d="M146 103V231" stroke="black" stroke-width="16" stroke-linecap="round"/>
</svg>
