<svg width="476" height="192" viewBox="0 0 476 192" fill="none" xmlns="http://www.w3.org/2000/svg">
<circle cx="96" cy="96" r="88" fill="black" stroke="black" stroke-width="16"/>
<path d="M81 12C122.623 12 157 49.2408 157 96C157 142.759 122.623 180 81 180C39.3766 180 5 142.759 5 96C5 49.2408 39.3766 12 81 12Z" fill="white" stroke="black" stroke-width="8"/>
<circle cx="380" cy="96" r="88" fill="black" stroke="black" stroke-width="16"/>
<path d="M366 12C407.623 12 442 49.2408 442 96C442 142.759 407.623 180 366 180C324.377 180 290 142.759 290 96C290 49.2408 324.377 12 366 12Z" fill="white" stroke="black" stroke-width="8"/>
</svg>
