<svg width="477" height="191" viewBox="0 0 477 191" fill="none" xmlns="http://www.w3.org/2000/svg">
<g filter="url(#filter0_i_207_3808)">
<path d="M186.352 50.9539C182.061 22.7623 156.656 3.88235 129.571 8.77823C113.133 11.7483 99.9075 22.8572 92.9631 37.3535C82.1089 26.0839 66.3192 20.2414 49.9023 23.2151C22.8362 28.1256 4.32524 54.9601 8.61599 83.1518C9.22783 87.1419 10.3062 90.9321 11.7027 94.5076C25.191 137.311 79.2767 175.264 114.906 181.897C146.663 163.041 186.647 108.043 186.777 62.7885C187.052 58.9095 186.943 54.9404 186.352 50.9539Z" fill="#DD2E44"/>
</g>
<g filter="url(#filter1_i_207_3808)">
<path d="M289.809 50.9539C294.099 22.7623 319.504 3.88235 346.589 8.77823C363.027 11.7483 376.253 22.8572 383.198 37.3535C394.052 26.0839 409.841 20.2414 426.258 23.2151C453.324 28.1256 471.835 54.9601 467.545 83.1518C466.933 87.1419 465.854 90.9321 464.458 94.5076C450.97 137.311 396.884 175.264 361.255 181.897C329.498 163.041 289.514 108.043 289.383 62.7885C289.109 58.9095 289.218 54.9404 289.809 50.9539Z" fill="#DD2E44"/>
</g>
<path d="M186.352 50.9539C182.061 22.7623 156.656 3.88235 129.571 8.77823C113.133 11.7483 99.9075 22.8572 92.9631 37.3535C82.1089 26.0839 66.3192 20.2414 49.9023 23.2151C22.8362 28.1256 4.32524 54.9601 8.61599 83.1518C9.22783 87.1419 10.3062 90.9321 11.7027 94.5076C25.191 137.311 79.2767 175.264 114.906 181.897C146.663 163.041 186.647 108.043 186.777 62.7885C187.052 58.9095 186.943 54.9404 186.352 50.9539Z" stroke="black" stroke-width="16"/>
<path d="M289.809 50.9539C294.099 22.7623 319.504 3.88235 346.589 8.77823C363.027 11.7483 376.253 22.8572 383.198 37.3535C394.052 26.0839 409.841 20.2414 426.258 23.2151C453.324 28.1256 471.835 54.9601 467.545 83.1518C466.933 87.1419 465.854 90.9321 464.458 94.5076C450.97 137.311 396.884 175.264 361.255 181.897C329.498 163.041 289.514 108.043 289.383 62.7885C289.109 58.9095 289.218 54.9404 289.809 50.9539Z" stroke="black" stroke-width="16"/>
<defs>
<filter id="filter0_i_207_3808" x="7.99805" y="8.00549" width="178.922" height="173.891" filterUnits="userSpaceOnUse" color-interpolation-filters="sRGB">
<feFlood flood-opacity="0" result="BackgroundImageFix"/>
<feBlend mode="normal" in="SourceGraphic" in2="BackgroundImageFix" result="shape"/>
<feColorMatrix in="SourceAlpha" type="matrix" values="0 0 0 0 0 0 0 0 0 0 0 0 0 0 0 0 0 0 127 0" result="hardAlpha"/>
<feOffset dx="-32" dy="32"/>
<feComposite in2="hardAlpha" operator="arithmetic" k2="-1" k3="1"/>
<feColorMatrix type="matrix" values="0 0 0 0 1 0 0 0 0 1 0 0 0 0 1 0 0 0 0.25 0"/>
<feBlend mode="normal" in2="shape" result="effect1_innerShadow_207_3808"/>
</filter>
<filter id="filter1_i_207_3808" x="289.24" y="8.00549" width="178.922" height="173.891" filterUnits="userSpaceOnUse" color-interpolation-filters="sRGB">
<feFlood flood-opacity="0" result="BackgroundImageFix"/>
<feBlend mode="normal" in="SourceGraphic" in2="BackgroundImageFix" result="shape"/>
<feColorMatrix in="SourceAlpha" type="matrix" values="0 0 0 0 0 0 0 0 0 0 0 0 0 0 0 0 0 0 127 0" result="hardAlpha"/>
<feOffset dx="-32" dy="32"/>
<feComposite in2="hardAlpha" operator="arithmetic" k2="-1" k3="1"/>
<feColorMatrix type="matrix" values="0 0 0 0 1 0 0 0 0 1 0 0 0 0 1 0 0 0 0.25 0"/>
<feBlend mode="normal" in2="shape" result="effect1_innerShadow_207_3808"/>
</filter>
</defs>
</svg>
