<svg width="704" height="420" viewBox="0 0 704 420" fill="none" xmlns="http://www.w3.org/2000/svg">
<g filter="url(#filter0_ears-cat)">
<path d="M289.329 181.276C352.427 290.566 334.091 370.838 274.25 405.387C214.408 439.936 135.723 415.68 72.6245 306.391C9.52598 197.101 -14.0916 44.1626 45.7496 9.61327C105.591 -24.9361 226.23 71.9864 289.329 181.276Z" fill="#A06A4C" data-colorable="skin"/>
</g>
<path d="M51.7496 20.0056C62.8769 13.5812 77.952 12.6032 96.875 18.0264C115.754 23.4369 137.123 34.8855 159.196 51.1628C203.313 83.6962 248.163 133.975 278.936 187.276C309.684 240.533 319.774 285.345 315.964 320.05C312.199 354.343 294.822 379.653 268.25 394.995C241.677 410.336 211.069 412.73 179.489 398.844C147.528 384.791 113.765 353.647 83.0168 300.391C52.2432 247.089 31.1254 183.109 25.0093 128.635C21.9493 101.381 22.7191 77.1506 27.4728 58.0957C32.2377 38.9964 40.6223 26.4299 51.7496 20.0056Z" stroke="black" stroke-width="24"/>
<g filter="url(#filter1_ears-cat)">
<path d="M414.671 181.276C351.573 290.566 369.909 370.838 429.75 405.387C489.592 439.936 568.277 415.68 631.375 306.391C694.474 197.101 718.092 44.1626 658.25 9.61327C598.409 -24.9361 477.77 71.9864 414.671 181.276Z" fill="#A06A4C" data-colorable="skin"/>
</g>
<path d="M652.25 20.0056C641.123 13.5812 626.048 12.6032 607.125 18.0264C588.246 23.4369 566.877 34.8855 544.804 51.1628C500.687 83.6962 455.837 133.975 425.064 187.276C394.316 240.533 384.226 285.345 388.036 320.05C391.801 354.343 409.178 379.653 435.75 394.995C462.323 410.336 492.931 412.73 524.511 398.844C556.472 384.791 590.235 353.647 620.983 300.391C651.757 247.089 672.875 183.109 678.991 128.635C682.051 101.381 681.281 77.1506 676.527 58.0957C671.762 38.9964 663.378 26.4299 652.25 20.0056Z" stroke="black" stroke-width="24"/>
<defs>
<filter id="filter0_ears-cat" x="11.1855" y="2.50635" width="317.545" height="417.497" filterUnits="userSpaceOnUse" color-interpolation-filters="sRGB">
<feFlood flood-opacity="0" result="BackgroundImageFix"/>
<feBlend mode="normal" in="SourceGraphic" in2="BackgroundImageFix" result="shape"/>
<feColorMatrix in="SourceAlpha" type="matrix" values="0 0 0 0 0 0 0 0 0 0 0 0 0 0 0 0 0 0 127 0" result="hardAlpha"/>
<feOffset dx="-32" dy="32"/>
<feComposite in2="hardAlpha" operator="arithmetic" k2="-1" k3="1"/>
<feColorMatrix type="matrix" values="0 0 0 0 1 0 0 0 0 1 0 0 0 0 1 0 0 0 0.25 0"/>
<feBlend mode="normal" in2="shape" result="effect1_innerShadow_207_3494"/>
<feColorMatrix in="SourceAlpha" type="matrix" values="0 0 0 0 0 0 0 0 0 0 0 0 0 0 0 0 0 0 127 0" result="hardAlpha"/>
<feOffset dx="32" dy="-32"/>
<feComposite in2="hardAlpha" operator="arithmetic" k2="-1" k3="1"/>
<feColorMatrix type="matrix" values="0 0 0 0 0 0 0 0 0 0 0 0 0 0 0 0 0 0 0.25 0"/>
<feBlend mode="normal" in2="effect1_innerShadow_207_3494" result="effect2_innerShadow_207_3494"/>
</filter>
<filter id="filter1_ears-cat" x="375.269" y="2.50635" width="317.545" height="417.497" filterUnits="userSpaceOnUse" color-interpolation-filters="sRGB">
<feFlood flood-opacity="0" result="BackgroundImageFix"/>
<feBlend mode="normal" in="SourceGraphic" in2="BackgroundImageFix" result="shape"/>
<feColorMatrix in="SourceAlpha" type="matrix" values="0 0 0 0 0 0 0 0 0 0 0 0 0 0 0 0 0 0 127 0" result="hardAlpha"/>
<feOffset dx="-32" dy="32"/>
<feComposite in2="hardAlpha" operator="arithmetic" k2="-1" k3="1"/>
<feColorMatrix type="matrix" values="0 0 0 0 1 0 0 0 0 1 0 0 0 0 1 0 0 0 0.25 0"/>
<feBlend mode="normal" in2="shape" result="effect1_innerShadow_207_3494"/>
<feColorMatrix in="SourceAlpha" type="matrix" values="0 0 0 0 0 0 0 0 0 0 0 0 0 0 0 0 0 0 127 0" result="hardAlpha"/>
<feOffset dx="32" dy="-32"/>
<feComposite in2="hardAlpha" operator="arithmetic" k2="-1" k3="1"/>
<feColorMatrix type="matrix" values="0 0 0 0 0 0 0 0 0 0 0 0 0 0 0 0 0 0 0.25 0"/>
<feBlend mode="normal" in2="effect1_innerShadow_207_3494" result="effect2_innerShadow_207_3494"/>
</filter>
</defs>
</svg>