<svg width="320" height="268" viewBox="0 0 320 268" fill="none" xmlns="http://www.w3.org/2000/svg">
<path d="M160 260C118.432 260 80.4212 240.085 52.6563 210.934C24.8272 181.715 8.00001 143.958 8.00001 109.396C8.00009 75.4716 24.2034 50.5439 51.1035 33.7295C78.3593 16.6929 116.718 7.99998 160 7.99999C203.282 7.99999 241.641 16.6929 268.897 33.7295C295.797 50.5439 312 75.4716 312 109.396C312 143.958 295.173 181.715 267.344 210.934C239.579 240.085 201.568 260 160 260Z" fill="black" stroke="black" stroke-width="16"/>
<path d="M81.8982 19.4857C81.4151 13.8453 85.8631 9 91.5241 9H229.476C235.137 9 239.585 13.8453 239.102 19.4857L229.485 131.745C228.843 139.242 222.57 145 215.046 145H105.954C98.4295 145 92.157 139.242 91.5148 131.745L81.8982 19.4857Z" fill="white"/>
<path d="M160 260C118.432 260 80.4212 240.085 52.6563 210.934C24.8272 181.715 8.00001 143.958 8.00001 109.396C8.00009 75.4716 24.2034 50.5439 51.1035 33.7295C78.3593 16.6929 116.718 7.99998 160 7.99999C203.282 7.99999 241.641 16.6929 268.897 33.7295C295.797 50.5439 312 75.4716 312 109.396C312 143.958 295.173 181.715 267.344 210.934C239.579 240.085 201.568 260 160 260Z" stroke="black" stroke-width="16"/>
<path d="M160 9V219" stroke="black" stroke-width="16" stroke-linecap="round"/>
</svg>