<svg width="320" height="268" viewBox="0 0 320 268" fill="none" xmlns="http://www.w3.org/2000/svg">

<path d="M1.38655e-05 109.397C2.03354e-05 35.3905 71.6345 -2.17128e-05 160 -1.39876e-05C248.366 -6.26248e-06 320 35.3906 320 109.397C320 183.403 248.366 268 160 268C71.6344 268 7.39572e-06 183.403 1.38655e-05 109.397Z" fill="black"/>

<path d="M160 260C118.432 260 80.4212 240.085 52.6563 210.934C24.8272 181.715 8.00001 143.958 8.00001 109.396C8.00009 75.4716 24.2034 50.5439 51.1035 33.7295C78.3593 16.6929 116.718 7.99998 160 7.99999C203.282 7.99999 241.641 16.6929 268.897 33.7295C295.797 50.5439 312 75.4716 312 109.396C312 143.958 295.173 181.715 267.344 210.934C239.579 240.085 201.568 260 160 260Z" stroke="black" stroke-width="16"/>
<path d="M80.5 143.5L103.5 182" stroke="black" stroke-width="16"/>

</svg>