<svg width="320" height="268" viewBox="0 0 320 268" fill="none" xmlns="http://www.w3.org/2000/svg">

<path d="M320 158.603C320 232.609 248.366 268 160 268C71.6344 268 0 232.609 0 158.603C0 84.5971 71.6344 0 160 0C248.366 0 320 84.5971 320 158.603Z" fill="#CCA48E" data-colorable="muzzle"/>

<path d="M160 8C201.568 8 239.579 27.9153 267.344 57.0664C295.173 86.285 312 124.042 312 158.604C312 192.528 295.797 217.456 268.896 234.271C241.641 251.307 203.282 260 160 260C116.718 260 78.3592 251.307 51.1035 234.271C24.2033 217.456 8.00008 192.528 8 158.604C8 124.042 24.8272 86.285 52.6563 57.0664C80.4212 27.9153 118.432 8 160 8Z" stroke="black" stroke-width="16"/>
<path d="M104 43.9213C104 19.6208 129.072 7.99999 160 8C190.928 8 216 19.6208 216 43.9213C216 68.2218 190.928 96 160 96C129.072 96 104 68.2218 104 43.9213Z" fill="black"/>
<path d="M70.709 126.699C70.468 121.389 75.2489 117.627 80.1182 118.492L80.5898 118.59L83.2227 119.213C98.027 122.67 136.667 130.993 163.529 130.645C189.648 130.306 227.75 121.47 239.354 118.623C244.345 117.398 249.543 121.172 249.29 126.718C248.835 136.696 246.55 146.527 242.535 155.759C238.022 166.135 231.414 175.546 223.104 183.461C214.793 191.375 204.942 197.64 194.118 201.91C183.294 206.18 171.701 208.375 160 208.375C148.299 208.375 136.706 206.18 125.882 201.91C115.058 197.64 105.207 191.375 96.8965 183.461C88.5858 175.546 81.9778 166.135 77.4648 155.759C73.4471 146.521 71.1623 136.684 70.709 126.699Z" fill="#171921" stroke="#171921" stroke-width="10.75"/>
<mask id="mask0_207_2638" style="mask-type:alpha" maskUnits="userSpaceOnUse" x="76" y="123" width="168" height="80">
<path d="M244 123C244 133.506 241.827 143.909 237.606 153.615C233.384 163.321 227.197 172.14 219.397 179.569C211.597 186.997 202.337 192.89 192.145 196.91C181.954 200.931 171.031 203 160 203C148.969 203 138.046 200.931 127.855 196.91C117.663 192.89 108.403 186.997 100.603 179.569C92.8029 172.14 86.6155 163.321 82.3941 153.615C78.1727 143.909 76 133.506 76 123L244 123Z" fill="#171921"/>
</mask>
<g mask="url(#mask0_207_2638)">
<ellipse cx="160.023" cy="214.175" rx="56.4375" ry="53.75" fill="#FC909F"/>
</g>

</svg>