<svg width="320" height="292" viewBox="0 0 320 292" fill="none" xmlns="http://www.w3.org/2000/svg">
<path d="M160 284C118.432 284 80.4212 264.085 52.6563 234.934C24.8272 205.715 8.00001 167.958 8.00001 133.396C8.00004 124.51 9.14114 120.462 10.0039 118.968C10.1618 118.989 10.3695 119.027 10.6328 119.093C13.0655 119.701 16.9417 121.783 22.6387 125.9C28.138 129.875 34.4729 135.091 41.7705 141.115C56.1753 153.006 73.8863 167.681 93.6602 179.329C113.44 190.98 135.922 200 160 200C184.078 200 206.56 190.981 226.34 179.329C246.114 167.681 263.825 153.006 278.23 141.115C285.527 135.091 291.862 129.875 297.361 125.9C303.058 121.783 306.935 119.701 309.367 119.093C309.631 119.027 309.839 118.989 309.997 118.968C310.86 120.463 312 124.511 312 133.396C312 167.958 295.173 205.715 267.344 234.934C239.579 264.085 201.568 284 160 284Z" fill="black" stroke="black" stroke-width="16"/>
<path d="M120 247.593C120 234.339 137.909 228 160 228C182.091 228 200 234.339 200 247.593C200 260.848 182.091 276 160 276C137.909 276 120 260.848 120 247.593Z" fill="#FC909F"/>
<path d="M104 67.9213C104 43.6208 129.072 32 160 32C190.928 32 216 43.6208 216 67.9213C216 92.2218 190.928 120 160 120C129.072 120 104 92.2218 104 67.9213Z" fill="black"/>
<path d="M240 64C240 33.0721 204.183 8 160 8C115.817 8 80 33.0721 80 64" stroke="black" stroke-width="16" stroke-linecap="round"/>
</svg>