<svg width="320" height="268" viewBox="0 0 320 268" fill="none" xmlns="http://www.w3.org/2000/svg">
<g filter="url(#filter0_mouth-ellipse-33)">
<path d="M320 158.603C320 232.609 248.366 268 160 268C71.6344 268 0 232.609 0 158.603C0 84.5971 71.6344 0 160 0C248.366 0 320 84.5971 320 158.603Z" fill="#CCA48E" data-colorable="muzzle"/>
</g>
<path d="M160 8C201.568 8 239.579 27.9153 267.344 57.0664C295.173 86.285 312 124.042 312 158.604C312 192.528 295.797 217.456 268.896 234.271C241.641 251.307 203.282 260 160 260C116.718 260 78.3592 251.307 51.1035 234.271C24.2033 217.456 8.00008 192.528 8 158.604C8 124.042 24.8272 86.285 52.6563 57.0664C80.4212 27.9153 118.432 8 160 8Z" stroke="black" stroke-width="16"/>
<rect x="60" y="127" width="200" height="79.9999" rx="10.4444" fill="black"/>
<path fill-rule="evenodd" clip-rule="evenodd" d="M231.041 130H83.4071L87.3137 154.766C88.425 161.811 94.4966 167 101.628 167H212.819C219.951 167 226.023 161.811 227.134 154.766L231.041 130ZM231.039 204H83.4058L87.3124 179.234C88.4236 172.189 94.4952 167 101.627 167L212.818 167C219.95 167 226.021 172.189 227.133 179.234L231.039 204Z" fill="white"/>
<path d="M246.74 124.023C256.327 122.419 265.223 129.772 265.223 139.595V194.405C265.223 204.228 256.327 211.581 246.74 209.977C226.908 206.658 187.85 200.794 160 200.794C132.15 200.794 93.0919 206.658 73.2598 209.977C63.6734 211.581 54.7774 204.228 54.7773 194.405V139.595C54.7773 129.772 63.6733 122.419 73.2598 124.023C93.0919 127.342 132.15 133.206 160 133.206C187.85 133.206 226.908 127.342 246.74 124.023Z" stroke="black" stroke-width="10.4444"/>
<path d="M104 43.9213C104 19.6208 129.072 7.99999 160 8C190.928 8 216 19.6208 216 43.9213C216 68.2218 190.928 96 160 96C129.072 96 104 68.2218 104 43.9213Z" fill="black"/>
<defs>
<filter id="filter0_mouth-ellipse-33" x="0" y="0" width="320" height="268" filterUnits="userSpaceOnUse" color-interpolation-filters="sRGB">
<feFlood flood-opacity="0" result="BackgroundImageFix"/>
<feBlend mode="normal" in="SourceGraphic" in2="BackgroundImageFix" result="shape"/>
<feColorMatrix in="SourceAlpha" type="matrix" values="0 0 0 0 0 0 0 0 0 0 0 0 0 0 0 0 0 0 127 0" result="hardAlpha"/>
<feOffset dy="56"/>
<feComposite in2="hardAlpha" operator="arithmetic" k2="-1" k3="1"/>
<feColorMatrix type="matrix" values="0 0 0 0 1 0 0 0 0 1 0 0 0 0 1 0 0 0 0.25 0"/>
<feBlend mode="normal" in2="shape" result="effect1_innerShadow_207_2579"/>
<feColorMatrix in="SourceAlpha" type="matrix" values="0 0 0 0 0 0 0 0 0 0 0 0 0 0 0 0 0 0 127 0" result="hardAlpha"/>
<feOffset dy="-48"/>
<feComposite in2="hardAlpha" operator="arithmetic" k2="-1" k3="1"/>
<feColorMatrix type="matrix" values="0 0 0 0 0 0 0 0 0 0 0 0 0 0 0 0 0 0 0.25 0"/>
<feBlend mode="normal" in2="effect1_innerShadow_207_2579" result="effect2_innerShadow_207_2579"/>
</filter>
</defs>
</svg>