<svg width="320" height="268" viewBox="0 0 320 268" fill="none" xmlns="http://www.w3.org/2000/svg">
<path d="M160 260C118.432 260 80.4212 240.085 52.6563 210.934C24.8272 181.715 8.00001 143.958 8.00001 109.396C8.00009 75.4716 24.2034 50.5439 51.1035 33.7295C78.3593 16.6929 116.718 7.99998 160 7.99999C203.282 7.99999 241.641 16.6929 268.897 33.7295C295.797 50.5439 312 75.4716 312 109.396C312 143.958 295.173 181.715 267.344 210.934C239.579 240.085 201.568 260 160 260Z" fill="black" stroke="black" stroke-width="16"/>
<path d="M80.5 143.5L103.5 182" stroke="black" stroke-width="16"/>
<path d="M120 218.084C120 201.791 137.909 194 160 194C182.091 194 200 201.791 200 218.084C200 234.376 182.091 253 160 253C137.909 253 120 234.376 120 218.084Z" fill="#FC909F"/>
</svg>