<svg viewBox="0 0 632 140" fill="currentColor" xmlns="http://www.w3.org/2000/svg">
<path fill-rule="evenodd" clip-rule="evenodd" d="M462.851 1.97728e-05C459.206 -0.00152666 455.71 1.44454 453.131 4.02028C450.552 6.59601 449.101 10.0905 449.098 13.7355C449.101 17.3804 450.552 20.875 453.131 23.4507C455.71 26.0264 459.206 27.4725 462.851 27.471C464.656 27.4725 466.444 27.1184 468.113 26.429C469.781 25.7395 471.297 24.7282 472.575 23.4528C473.853 22.1773 474.867 20.6627 475.559 18.9954C476.251 17.3281 476.608 15.5408 476.61 13.7355C476.607 10.0905 475.156 6.59601 472.577 4.02028C469.998 1.44454 466.496 -0.00152666 462.851 1.97728e-05ZM372.979 1.97728e-05C369.333 -0.00152787 365.836 1.44436 363.257 4.01992C360.677 6.59549 359.225 10.09 359.22 13.7355C359.225 17.38 360.676 20.8736 363.254 23.449C365.833 26.0244 369.329 27.471 372.973 27.471C374.779 27.4733 376.567 27.1198 378.237 26.4307C379.906 25.7416 381.423 24.7304 382.701 23.4548C383.979 22.1793 384.994 20.6644 385.686 18.9967C386.379 17.3291 386.736 15.5413 386.738 13.7355C386.736 11.9302 386.379 10.1429 385.687 8.47558C384.995 6.80829 383.981 5.29367 382.703 4.01822C381.425 2.74276 379.909 1.73144 378.241 1.042C376.572 0.352553 374.784 -0.00151144 372.979 1.97728e-05ZM275.17 1.97728e-05C273.364 -0.00227734 271.575 0.351221 269.906 1.04032C268.237 1.72942 266.72 2.74062 265.442 4.01615C264.164 5.29169 263.149 6.80656 262.457 8.47423C261.764 10.1419 261.407 11.9297 261.405 13.7355C261.41 17.382 262.862 20.8774 265.444 23.4531C268.025 26.0289 271.523 27.4741 275.17 27.471C278.815 27.4725 282.311 26.0264 284.89 23.4507C287.469 20.875 288.92 17.3804 288.923 13.7355C288.92 10.0915 287.47 6.5979 284.892 4.02234C282.314 1.44677 278.814 1.84632e-05 275.17 1.97728e-05ZM13.753 1.97728e-05C10.108 -0.00152666 6.61163 1.44454 4.03262 4.02028C1.45361 6.59601 0.00308993 10.0905 0 13.7355C0.00308993 17.3804 1.45361 20.875 4.03262 23.4507C6.61163 26.0264 10.108 27.4725 13.753 27.471C15.559 27.4733 17.3478 27.1198 19.0173 26.4308C20.6868 25.7417 22.2042 24.7306 23.4829 23.4552C24.7616 22.1797 25.7766 20.6649 26.4698 18.9972C27.1631 17.3295 27.5211 15.5416 27.5234 13.7355C27.5219 11.9292 27.1644 10.1409 26.4714 8.47288C25.7784 6.80483 24.7634 5.2897 23.4846 4.01409C22.2057 2.73848 20.688 1.7274 19.0182 1.03865C17.3484 0.349889 15.5592 -0.00304367 13.753 1.97728e-05ZM408.515 21.1015V42.2729H393.136V59.5165H408.521V114.47H427.303V59.5165H442.682V42.2729H427.303V21.1015H408.515ZM558.481 78.2287C558.481 57.203 575.007 40.0992 595.311 40.0992C615.619 40.0992 631.22 57.203 631.22 78.2287C631.22 80.2217 631.068 82.1797 630.783 84.0912L576.762 84.1203C578.947 93.4094 586.237 100.245 595.322 100.245C600.8 100.245 605.765 97.7625 609.355 93.7532H628.935C623.178 107.063 610.276 116.364 595.311 116.364C575.007 116.364 558.481 99.2602 558.481 78.2287ZM595.322 56.2123C587.339 56.2123 580.753 61.4862 577.781 69.0562H612.572C609.699 61.4804 603.306 56.2123 595.322 56.2123ZM295.187 63.6191C295.187 73.7007 301.755 82.0282 316.26 85.0935L326.196 87.2905C331.994 88.456 334.284 91.0784 334.284 94.301C334.284 98.1005 331.079 101.457 324.354 101.457C315.496 101.457 311.067 96.2008 310.613 90.5014H293.206C293.206 100.169 301.912 116.364 324.506 116.364C344.208 116.364 353.678 104.383 353.678 92.6926C353.678 82.1739 346.196 73.555 331.388 70.6354L320.694 68.4385C316.569 67.71 313.824 65.5247 313.824 62.0107C313.824 57.9256 318.101 54.8545 323.439 54.8545C331.994 54.8545 335.199 60.2566 335.811 64.499H352.769C352.769 55.2216 344.669 40.0992 323.288 40.0992C307.099 40.0992 295.187 50.7636 295.187 63.6191ZM106.603 78.2287C106.603 57.203 123.118 40.0992 143.427 40.0992C150.1 40.0992 156.248 41.9465 161.521 45.175V42.2729H180.403V139.861H161.521V111.422C155.998 114.83 149.637 116.635 143.147 116.638C126.178 116.644 111.871 104.447 107.832 88.0014C107.016 84.8081 106.603 81.5249 106.603 78.2287ZM125.624 78.5026C125.624 89.266 133.211 98.0248 143.176 98.0248C153.141 98.0248 161.253 89.266 161.253 78.5026C161.253 67.745 153.141 58.9804 143.176 58.9804C133.211 58.9804 125.624 67.745 125.624 78.5026ZM33.922 68.59V114.47H53.3976V71.9524C53.3976 61.7543 60.4256 57.6342 66.0083 57.6342C71.5911 57.6342 78.6249 61.7543 78.6249 71.9524V114.47H98.0889V68.59C98.0889 52.809 83.8697 40.105 66.0083 40.105C48.147 40.105 33.9162 52.7974 33.9162 68.5841L33.922 68.59ZM538.405 42.2729H559.751L530.188 114.464H510.578L481.01 42.2729H502.362L520.38 90.3732L538.405 42.2729ZM453.119 114.464H472.583V42.2729H453.119V114.464ZM363.247 114.464H382.711V42.2729H363.247V114.464ZM265.432 114.464H284.902V42.2729H265.432V114.464ZM235.537 42.2729V84.7905C235.537 94.9828 228.497 99.1087 222.92 99.1087C217.337 99.1087 210.304 94.9828 210.304 84.7905V42.2729H190.84V88.1471C190.84 103.928 205.059 116.644 222.92 116.644C240.782 116.644 255.001 103.928 255.001 88.1471V42.2729H235.537ZM4.02099 114.464H23.4907V42.2729H4.02682L4.02099 114.464Z"/>
</svg>
