<svg xmlns="http://www.w3.org/2000/svg" viewBox="0 0 120.22 17" fill="currentColor"><g id="Layer_2" data-name="Layer 2"><g id="Layer_1-2" data-name="Layer 1"><g id="Layer_1-2-2" data-name="Layer 1-2"><g id="Layer_2-2" data-name="Layer 2-2"><g id="Layer_1-2-2-2" data-name="Layer 1-2-2"><path d="M5.78,14.34c0,1.48,1.34,1.42,2.05,1.42v.47H0v-.47c.71,0,2.05.06,2.05-1.4v-12C2.05.91.71,1,0,1V.49H7.83V1c-.71,0-2,0-2,1.42Z"></path><path d="M15.58,1.19l10,10.92v-9c0-2.18-1.75-2.2-3-2.2V.49h6.57V.91c-1.21,0-3,0-3,2.2V16.23h-2L13.72,4.9v8.71c0,2.18,1.79,2.21,3,2.21v.41H10.15v-.41c1.23,0,3,0,3-2.21V3.84c0-1.71-1-3.14-2.44-3.14h-.42V.49h3.15A2.5,2.5,0,0,1,15.58,1.19Z"></path><path d="M30.84,4.77c0-2.49,1.39-4.49,4.65-4.49a8.42,8.42,0,0,1,3.25.65,1.35,1.35,0,0,0,.45.11c.08,0,.16,0,.16-.37V.2h.52V5.58h-.5C39.35,3.29,37.88.8,35.43.8c-1.89,0-3.07.94-3.07,2.13,0,1.71,1.63,2.26,4.1,3.63,2.68,1.48,4.39,2.7,4.39,5.21a4.47,4.47,0,0,1-4.26,4.67h-.5a10,10,0,0,1-4.28-.78c-.19-.08-.26,0-.26.34v.39H31v-6.2h.53c.07,3.22,1.94,5.73,4.54,5.73,1.7,0,3.23-.75,3.23-2.28,0-1.74-2.21-2.36-4.36-3.48C32.44,8.89,30.84,7.55,30.84,4.77Z"></path><path d="M49.29,14.34c0,1.48,1.34,1.42,2,1.42v.47H43.51v-.47c.71,0,2.05.06,2.05-1.4v-12C45.56.91,44.22,1,43.51,1V.49h7.82V1c-.7,0-2,0-2,1.42Z"></path><path d="M62.12,9h8.14v.49c-1.52,0-2.18.57-2.18,2.07V17h-.57c0-1.32-.14-1.76-.87-1.76-.94,0-2.36,1.19-5.15,1.19-5.44,0-8.56-2.57-8.56-7.6,0-5.68,4.49-8.56,9.19-8.56a10,10,0,0,1,4.1.89c.37.15.52.15.52-.26V.31h.56V5.83h-.48a4.84,4.84,0,0,0-4.67-5h0c-3.68,0-5.28,3.32-5.28,8,0,4.14,1.66,7.1,4.91,7.1,1.68,0,2.79-.91,2.79-3.08V11.51c0-1.37-.66-2-2.42-2Z"></path><path d="M76.2,1.19l10,10.92v-9c0-2.18-1.76-2.2-3-2.2V.49h6.56V.91c-1.2,0-3,0-3,2.2V16.23h-2L74.34,4.9v8.71c0,2.18,1.78,2.21,3,2.21v.41H70.76v-.41c1.24,0,3,0,3-2.21V3.84c0-1.71-1-3.14-2.45-3.14h-.42V.49h3.16A2.52,2.52,0,0,1,76.2,1.19Z"></path><path d="M97.26,14.34c0,1.48,1.34,1.42,2,1.42v.47H91.48v-.47c.71,0,2,.06,2-1.4v-12c0-1.45-1.34-1.4-2-1.4V.49h7.83V1c-.71,0-2,0-2,1.42Z"></path><path d="M106.31,15.84v.39h-5.46v-.39A2.92,2.92,0,0,0,104,13.9h.42a2.61,2.61,0,0,0-.23,1C104.19,15.53,104.71,15.84,106.31,15.84Zm2.5-13.3h-1V2.15A5.76,5.76,0,0,0,111.49,0l6,13.66c.61,1.4,1.29,2.1,2.73,2.1v.47h-9.06v-.47c1.71,0,2.45-.23,2.45-.95a3.52,3.52,0,0,0-.35-1.46Z"></path><path d="M105.32,10.61c.13-.34.1-.55-.21-.7l-2.45-1.3h2.82c.49,0,.6,0,.68-.36L107,5.16l.76,3.06c.08.34.15.39.68.39h2.73l-2.36,1.3c-.29.15-.34.36-.21.7l1.1,2.67-2.18-1.77a1,1,0,0,0-.52-.28,1,1,0,0,0-.53.28l-2.18,1.77Z"></path></g></g></g></g></g></svg>