<svg width="772" height="200" viewBox="0 0 772 200" fill="none" xmlns="http://www.w3.org/2000/svg">
<path d="M338.902 151.445C338.902 178.261 317.163 199.999 290.348 199.999V199.998C277.893 200.02 265.432 195.281 255.93 185.778L273.097 168.612C277.97 173.486 284.4 175.853 290.786 175.716C290.808 175.715 290.829 175.715 290.851 175.715C296.866 175.57 302.838 173.203 307.429 168.612L307.47 168.653C311.888 164.257 314.625 158.171 314.625 151.445V139.165C307.483 143.296 299.192 145.662 290.349 145.662C263.533 145.662 241.794 123.923 241.794 97.1074V48.5537C255.202 48.5538 266.071 59.4233 266.071 72.8311V97.1074C266.071 110.515 276.94 121.385 290.348 121.385C303.755 121.385 314.624 110.515 314.624 97.1074H314.625V72.8311C314.625 59.4232 325.495 48.5537 338.902 48.5537V151.445ZM48.5547 48.5537C75.3701 48.5538 97.1082 70.292 97.1084 97.1074C97.1084 123.923 75.3702 145.662 48.5547 145.662H24.2773V175.723C24.2771 189.13 13.4084 199.999 0.000976562 199.999V169.86C0.000894346 169.886 2.06102e-07 169.912 0 169.938V145.665H0.000976562V145.662L0 97.1074C0.000191664 70.292 21.7392 48.5537 48.5547 48.5537ZM480.679 48.5537C507.494 48.5537 529.233 70.2918 529.233 97.1074C529.233 123.923 507.494 145.661 480.679 145.661L456.402 145.662V175.722C456.402 189.129 445.533 199.999 432.125 199.999V145.662L432.124 97.1074C432.124 70.2919 453.863 48.5539 480.679 48.5537ZM129.15 121.385C129.15 134.792 118.282 145.662 104.874 145.662V24.2773C104.874 10.8696 115.743 0.000131119 129.15 0V121.385ZM185.472 48.5537C212.287 48.5537 234.026 70.2928 234.026 97.1084V145.662C226.085 145.662 219.034 141.848 214.604 135.952C206.489 142.048 196.403 145.662 185.472 145.662C158.656 145.662 136.918 123.924 136.918 97.1084C136.918 70.2928 158.656 48.5537 185.472 48.5537ZM385.516 48.5537C395.008 48.5537 404.139 51.1562 411.237 55.9961C418.274 60.7941 424.359 68.6781 424.359 78.9004H400.082V78.8975C400.082 78.8632 400.084 78.6583 399.808 78.2119C399.492 77.7024 398.82 76.9126 397.562 76.0547C394.995 74.3047 390.772 72.8311 385.516 72.8311C380.259 72.8311 376.037 74.3048 373.471 76.0547C372.213 76.9126 371.541 77.7024 371.225 78.2119C370.948 78.6583 370.95 78.8632 370.95 78.8975V78.9004C370.95 79.3235 370.979 79.5917 371.005 79.7432C371.101 79.8292 371.267 79.9622 371.533 80.1377C373.623 81.5149 378.19 83.2104 387.959 85.2178C397.684 87.2161 406.47 89.5964 412.859 93.8076C416.334 96.0979 419.419 99.1192 421.534 103.144C423.637 107.143 424.359 111.331 424.359 115.315C424.359 125.538 418.274 133.422 411.237 138.22C404.139 143.06 395.008 145.662 385.516 145.662C376.024 145.662 366.893 143.06 359.795 138.22C352.758 133.422 346.673 125.538 346.673 115.315H370.95V115.318C370.95 115.352 370.947 115.557 371.225 116.004C371.541 116.513 372.213 117.303 373.471 118.161C376.037 119.911 380.259 121.385 385.516 121.385C390.772 121.385 394.995 119.911 397.562 118.161C398.82 117.303 399.492 116.513 399.808 116.004C400.085 115.557 400.082 115.352 400.082 115.318V115.315C400.082 114.892 400.053 114.624 400.027 114.473C399.931 114.387 399.765 114.254 399.499 114.078C397.41 112.701 392.842 111.005 383.073 108.998C373.348 107 364.562 104.619 358.173 100.408C354.698 98.1179 351.614 95.0967 349.498 91.0723C347.396 87.0727 346.673 82.885 346.673 78.9004C346.673 68.6781 352.758 60.7941 359.795 55.9961C366.893 51.1563 376.024 48.5538 385.516 48.5537ZM585.556 48.5537C612.371 48.5537 634.11 70.2928 634.11 97.1084C634.11 123.924 612.371 145.662 585.556 145.662C558.74 145.662 537.002 123.924 537.002 97.1084C537.002 70.2929 558.74 48.5539 585.556 48.5537ZM715.197 48.5537C715.197 61.9614 704.329 72.8309 690.921 72.8311H690.436C677.054 72.8314 666.203 83.6579 666.16 97.0293V121.385C666.16 134.793 655.291 145.662 641.883 145.662V96.1367C641.883 95.3514 641.92 94.5748 641.993 93.8086C643.652 69.0814 663.824 49.4262 688.767 48.583C689.158 48.5642 689.553 48.5537 689.949 48.5537H715.197ZM747.24 48.3418H771.518C771.518 61.5401 760.985 72.279 747.867 72.6113L747.24 72.6191V121.385C747.24 134.792 736.372 145.662 722.964 145.662V24.2773C722.964 10.8697 733.833 0.000212108 747.24 0V48.3418ZM48.5537 72.8311C35.1461 72.8312 24.2775 83.6998 24.2773 97.1074V97.1406C24.2952 110.533 35.157 121.385 48.5537 121.385C61.9615 121.385 72.8311 110.515 72.8311 97.1074C72.8309 83.6997 61.9615 72.8311 48.5537 72.8311ZM185.472 72.8311C172.064 72.8311 161.195 83.7006 161.195 97.1084C161.196 110.516 172.064 121.385 185.472 121.385C198.879 121.385 209.749 110.516 209.749 97.1084C209.749 83.7006 198.879 72.8311 185.472 72.8311ZM480.679 72.8301C467.271 72.8303 456.402 83.6997 456.402 97.1074C456.402 110.515 467.271 121.385 480.679 121.385C494.086 121.385 504.956 110.515 504.956 97.1074C504.956 83.6996 494.087 72.8301 480.679 72.8301ZM585.56 72.8311C572.152 72.8311 561.282 83.7006 561.282 97.1084C561.282 110.516 572.152 121.385 585.56 121.385C598.967 121.385 609.836 110.516 609.836 97.1084C609.836 83.7007 598.967 72.8313 585.56 72.8311Z" fill="#333F4D"/>
</svg>
