<svg width="636" height="160" viewBox="0 0 636 160" fill="currentColor" xmlns="http://www.w3.org/2000/svg">
<path d="M86.3999 20C86.3999 8.95431 95.3542 0 106.4 0V0L106.4 100C106.4 111.046 97.4456 120 86.3999 120V120L86.3999 20Z"/>
<path d="M192.8 80L172.8 80L172.8 100C172.8 111.046 181.754 120 192.8 120V120L192.8 80Z"/>
<path d="M152.8 40C174.891 40 192.8 57.9086 192.8 80C192.8 102.091 174.891 120 152.8 120C130.708 120 112.8 102.091 112.8 80C112.8 57.9086 130.708 40 152.8 40ZM152.8 60C141.754 60 132.8 68.9543 132.8 80C132.8 91.0457 141.754 100 152.8 100C163.845 100 172.8 91.0457 172.8 80C172.8 68.9543 163.845 60 152.8 60Z"/>
<path d="M482.4 40C504.491 40 522.4 57.9086 522.4 80C522.4 102.091 504.491 120 482.4 120C460.309 120 442.4 102.091 442.4 80C442.4 57.9086 460.309 40 482.4 40ZM482.4 60C471.354 60 462.4 68.9543 462.4 80C462.4 91.0457 471.354 100 482.4 100C493.446 100 502.4 91.0457 502.4 80C502.4 68.9543 493.446 60 482.4 60Z"/>
<path d="M259.2 60C259.2 48.9543 268.154 40 279.2 40V120H259.2V60Z"/>
<path d="M219.2 60C219.2 48.9543 210.246 40 199.2 40L199.2 80H219.2V60Z"/>
<path d="M199.2 80C199.2 102.091 217.109 120 239.2 120C261.292 120 279.2 102.091 279.2 80H259.2C259.2 91.0457 250.246 100 239.2 100C228.154 100 219.2 91.0457 219.2 80H199.2Z"/>
<path d="M199.2 120C199.2 142.091 217.109 160 239.2 160C261.292 160 279.2 142.091 279.2 120H259.2C259.2 131.046 250.246 140 239.2 140C228.154 140 219.2 131.046 219.2 120H199.2Z"/>
<path d="M548.8 100C548.8 111.046 539.845 120 528.8 120L528.8 79.2C528.8 68.1543 537.754 59.2 548.8 59.2L548.8 100Z"/>
<path d="M568.8 40C546.708 40 528.8 57.9086 528.8 80H548.8C548.8 68.9543 557.754 60 568.8 60V40Z"/>
<path d="M568.8 60C579.846 60 588.8 51.0457 588.8 40H568.8C557.754 40 548.8 48.9543 548.8 60H568.8Z"/>
<path d="M615.2 39.6C604.155 39.6 595.2 48.5543 595.2 59.6H615.2C626.246 59.6 635.2 50.6457 635.2 39.6L615.2 39.6Z"/>
<path d="M595.2 20C595.2 8.95431 604.155 0 615.2 0V100C615.2 111.046 606.246 120 595.2 120L595.2 20Z"/>
<path fill-rule="evenodd" clip-rule="evenodd" d="M305.6 64.9979C305.6 64.9987 305.6 64.9994 305.6 65C305.6 65.3489 305.624 65.57 305.645 65.6947C305.725 65.7656 305.861 65.875 306.081 66.0196C307.802 67.1542 311.565 68.5509 319.613 70.2047C327.625 71.8509 334.862 73.8121 340.126 77.2814C342.989 79.1682 345.53 81.657 347.273 84.9725C349.005 88.2675 349.6 91.7173 349.6 95C349.6 103.421 344.587 109.916 338.79 113.869C332.942 117.856 325.42 120 317.6 120C309.78 120 302.258 117.856 296.41 113.869C290.613 109.916 285.6 103.421 285.6 95H305.6L305.6 95.0021C305.6 95.0297 305.598 95.1984 305.827 95.5672C306.087 95.987 306.64 96.6375 307.677 97.3443C309.792 98.786 313.27 100 317.6 100C321.93 100 325.409 98.786 327.523 97.3443C328.56 96.6375 329.113 95.987 329.374 95.5671C329.602 95.1984 329.6 95.0297 329.6 95.0021L329.6 95C329.6 94.6511 329.576 94.43 329.555 94.3053C329.475 94.2344 329.339 94.125 329.119 93.9804C327.398 92.8458 323.635 91.4491 315.587 89.7953C307.575 88.1491 300.338 86.1879 295.074 82.7186C292.212 80.8318 289.67 78.343 287.928 75.0275C286.196 71.7325 285.6 68.2827 285.6 65C285.6 56.5786 290.613 50.0838 296.41 46.1311C302.258 42.1439 309.78 40 317.6 40C325.42 40 332.942 42.1439 338.79 46.1311C344.587 50.0838 349.6 56.5786 349.6 65H329.6C329.6 64.9994 329.6 64.9987 329.6 64.9979C329.6 64.9703 329.602 64.8016 329.374 64.4329C329.113 64.013 328.56 63.3625 327.523 62.6557C325.409 61.214 321.93 60 317.6 60C313.27 60 309.792 61.214 307.677 62.6557C306.64 63.3625 306.087 64.013 305.827 64.4329C305.598 64.8016 305.6 64.9703 305.6 64.9979ZM329.649 94.4009C329.649 94.401 329.642 94.3935 329.631 94.3782C329.645 94.3932 329.65 94.4009 329.649 94.4009ZM329.533 94.1985C329.527 94.183 329.524 94.1744 329.525 94.1741C329.525 94.1737 329.528 94.1814 329.533 94.1985ZM305.551 65.5991C305.551 65.599 305.558 65.6065 305.57 65.6218C305.556 65.6068 305.55 65.5992 305.551 65.5991ZM305.668 65.8015C305.674 65.817 305.676 65.8255 305.676 65.8259C305.675 65.8263 305.672 65.8186 305.668 65.8015Z"/>
<path d="M0 120L20 120L20 140C20 151.046 11.0457 160 0 160V160L0 120Z" fill="currentColor"/>
<path d="M-2.62268e-06 80C-3.58833e-06 57.9086 17.9086 40 40 40C62.0914 40 80 57.9086 80 80C79.9999 102.091 62.0913 120 40 120L20 120C9.127 120 0.280792 128.676 0.00683591 139.483L0 140L-2.62268e-06 80ZM20 80C20.0001 91.0456 28.9543 100 40 100C51.0456 100 59.9999 91.0456 60 80C60 68.9543 51.0457 60 40 60C28.9543 60 20 68.9543 20 80Z"/>
<path d="M356 120L376 120L376 140C376 151.046 367.046 160 356 160V160L356 120Z" fill="currentColor"/>
<path d="M356 80L356.013 78.9678C356.56 57.3534 374.254 40 396 40C418.091 40 436 57.9086 436 80C436 101.746 418.646 119.44 397.032 119.987L396 120L376 120C364.954 120 356 128.954 356 140C345.254 132.828 356 93.8881 356 80ZM376 80C376 91.0457 384.954 100 396 100C407.046 100 416 91.0457 416 80C416 68.9543 407.046 60 396 60C384.954 60 376 68.9543 376 80Z"/>
</svg>
