<svg width="1599" height="1234" viewBox="0 0 1599 1234" fill="none" xmlns="http://www.w3.org/2000/svg">
<g clip-path="url(#clip0_2907_1479)">
<path fill-rule="evenodd" clip-rule="evenodd" d="M784.183 0.334993C807.441 -0.631367 830.738 0.71695 853.729 4.36008C875.297 7.78979 894.216 13.0895 911.041 20.6617C944.826 35.8648 967.415 60.9964 986.251 92.5095C995.41 107.822 1003.58 123.721 1009.58 142.823C1015.44 161.38 1019.47 183.636 1016.82 207.627C1015.58 218.17 1013.78 228.639 1011.42 238.989C1005.94 264.029 998.661 286.837 990.106 309.629C989.343 311.667 988.706 313.998 987.693 316.472C986.93 318.334 984.844 321.503 985.078 323.315C985.221 324.38 986.394 325.101 987.693 326.132C994.295 331.407 1000.94 338.367 999.557 350.887C998.862 357.193 997.68 363.239 996.742 369.402C995.845 375.272 994.53 381.544 994.53 388.32C994.53 390.71 995.887 391.615 997.747 393.351C1001.22 396.588 1004.53 402.441 1006.39 406.433C1010.27 414.676 1014.29 423.657 1015.44 433.803C1015.7 436.101 1015.75 438.29 1016.05 440.445C1016.56 444.059 1018.8 447.195 1020.67 450.306C1031.44 468.117 1046.12 482.893 1062.5 495.589C1079.64 508.871 1096.94 518.154 1113.98 531.211C1124.79 539.487 1135.77 548.611 1140.32 563.009C1142.65 570.363 1142.39 579.621 1140.53 588.568C1137.17 604.501 1129.76 616.928 1119.21 625.398C1113.52 630.177 1106.64 633.308 1099.3 634.454C1091.23 635.762 1082.54 634.454 1073.56 632.442C1065.55 630.664 1058.38 628.693 1050.43 626.404C1043.14 624.299 1034.44 621.037 1026.3 622.781C1018.68 624.417 1013.96 630.597 1012.06 637.674C1009.91 645.531 1010.87 655.376 1011.66 664.642C1012.44 673.908 1013.12 683.611 1011.46 691.61C1008.26 706.914 997.127 715.929 985.112 723.207C974.395 729.681 955.995 736.985 938.86 732.666C931.319 730.763 924.967 727.174 919.152 723.442C901.389 711.937 886.005 698.52 868.409 686.78C862.644 682.931 856.678 678.948 850.109 676.114C843.306 673.179 834.751 672.022 826.581 670.68C817.868 669.22 809.067 668.346 800.238 668.064C790.794 667.837 782.139 669.296 773.492 670.479C764.845 671.661 756.843 673.045 749.964 675.912C736.356 681.59 725.413 689.933 714.168 698.252C703.502 706.151 692.383 715.3 680.585 722.805C674.661 726.57 668.754 730.587 661.314 732.465C644.556 736.658 625.912 730.293 614.659 723.811C608.653 720.384 603.168 716.114 598.371 711.132C593.519 706.067 589.388 700.642 587.713 692.65C584.311 676.474 590.788 654.076 586.875 638.513C585.048 631.175 581.009 624.844 573.602 622.815C565.651 620.643 555.688 624.148 549.069 626.035C541.385 628.24 534.59 630.597 526.546 632.475C518.167 634.446 508.841 635.829 500.403 634.689C493.01 633.657 486.049 630.591 480.294 625.834C469.895 617.448 462.111 604.87 458.575 589.407C456.598 580.736 456.271 570.9 458.575 563.411C460.747 556.6 464.386 550.349 469.233 545.097C478.45 535.034 490.659 526.749 501.409 519.337C513.139 511.328 524.2 504.704 536.031 495.823C551.951 483.874 567.486 468.637 578.06 450.742C579.786 447.833 582.157 444.671 582.886 441.082C583.682 437.191 583.724 432.906 584.696 428.403C586.307 420.99 588.876 413.819 592.338 407.07C594.608 402.483 597.047 397.536 600.784 393.787C602.87 391.708 604.043 391.272 604.404 387.917C604.722 384.966 604.219 381.628 603.8 378.257C602.703 369.259 600.449 359.415 599.376 350.685C597.935 338.51 604.714 331.214 611.442 325.931C612.447 325.143 613.956 324.338 614.056 323.315C614.207 322.107 612.422 318.719 611.643 316.875C605.548 302.095 600.31 286.976 595.957 271.592C590.462 252.912 586.163 233.899 583.087 214.671C579.736 193.246 582.199 169.741 586.908 151.88C591.485 134.556 598.171 117.861 606.817 102.17C622.921 72.5434 643.793 46.2629 672.776 28.7119C698.173 13.3327 730.348 5.32443 767.693 1.54252C773.165 0.98907 778.754 0.594947 784.183 0.334993ZM1001.57 220.709C1002.5 215.728 1003.62 210.713 1004.18 205.614C1006.08 188.315 1003.45 172.206 999.993 157.716C995.627 139.943 988.79 122.871 979.682 107C962.254 76.3085 941.65 50.7408 909.868 34.7495C894.208 26.867 876.051 21.5338 855.572 18.0454C830.729 13.9184 805.518 12.4343 780.363 13.6178C740.101 15.6219 705.412 24.7539 678.809 40.3846C664.69 48.678 652.834 59.8057 642.612 72.5853C632.389 85.365 623.097 98.6562 615.464 113.842C607.831 129.029 601.295 145.825 597.566 164.357C595.441 174.563 594.363 184.959 594.349 195.384C594.407 205.782 596.226 216.071 598.17 225.773C605.711 263.375 617.265 297.529 631.149 329.621C624.111 333.025 617.743 335.944 614.257 341.696C611.216 346.669 613.051 352.388 614.056 358.601C614.626 362.09 615.145 365.754 615.665 369.268C616.746 376.572 618.581 384.362 617.274 391.607C616.721 394.676 614.366 396.337 612.447 398.249C603.901 406.802 596.527 419.045 595.756 434.877C595.622 437.552 596.284 440.411 595.957 443.732C595.647 446.927 593.62 450.189 591.936 453.191C590.251 456.193 588.525 459.12 586.908 461.644C569.044 489.601 543.58 507.873 516.122 525.643C505.489 532.485 493.918 540.032 484.751 548.351C480.009 552.669 475.534 557.659 472.686 563.244C469.569 569.474 469.451 578.681 471.077 586.153C472.561 592.904 475.288 599.32 479.121 605.071C482.472 610.253 486.896 615.469 492.795 618.555C506.478 625.725 524.719 619.578 537.204 615.939C550.183 612.165 567.812 605.239 581.847 612.115C588.24 615.243 592.53 620.081 595.723 625.196C599.493 631.242 600.75 637.406 601.152 646.731C601.89 662.202 595.782 682.789 602.761 695.434C605.727 700.809 611.048 705.396 616.235 708.918C621.745 712.765 627.77 715.814 634.132 717.975C641.514 720.49 649.55 721.53 657.459 719.585C664.506 717.857 669.475 714.277 675.357 710.361C686.35 702.998 696.246 695.116 706.527 687.619C717.026 679.971 727.86 672.047 739.305 666.286C750.751 660.525 765.532 656.659 782.139 655.217C798.511 653.791 816.451 654.311 832.815 657.431C848.006 660.332 859.77 666.051 871.023 673.128C887.781 683.644 902.688 695.417 918.281 706.738C928.428 714.109 939.513 723.325 957.495 720.222C971.571 717.799 984.442 709.631 992.284 700.935C996.792 695.904 999.23 690.202 999.323 681.011C999.499 664.5 994.806 645.431 1000.33 631.1C1005.29 618.245 1015.63 608.995 1032.1 609.364C1040.22 609.549 1047.28 611.88 1054.42 613.993C1061.56 616.106 1068.54 618.119 1075.74 619.863C1084.12 621.851 1091.93 623.058 1099.27 621.272C1105.77 619.68 1111.6 616.091 1115.96 611.008C1119.99 606.488 1123.22 600.526 1125.61 593.7C1127.94 587.042 1129.92 578.723 1128.63 570.556C1127.54 563.654 1123.32 557.617 1119.18 553.047C1114.74 548.158 1109.96 544.544 1104.7 540.569C1094.2 532.661 1082.73 525.777 1072.32 518.833C1051.31 504.72 1030.96 488.1 1015.88 467.245C1012.02 461.961 1008.59 456.375 1005.62 450.541C1004.8 449.068 1004.13 447.518 1003.61 445.912C1003.17 443.863 1002.97 441.769 1003.01 439.673C1002.97 435.496 1002.63 431.326 1002 427.196C999.809 413.938 993.156 404.454 985.313 396.605C984.031 395.322 982.053 394.089 981.894 393.184C980.487 385.033 982.221 377.385 983.503 369.436C984.081 365.888 984.517 361.939 985.112 358.165C985.74 354.207 986.955 350.191 986.519 346.493C985.975 341.855 982.238 338.476 979.079 336.027C976.485 334.11 973.725 332.426 970.834 330.996C969.796 330.562 968.843 329.949 968.019 329.185C983.339 294.44 994.597 258.04 1001.57 220.709Z" fill="black"/>
<path fill-rule="evenodd" clip-rule="evenodd" d="M917.912 323.147C918.197 325.906 921.121 326.56 923.14 327.574C935.91 333.998 952.065 336.597 963.963 344.48C965.865 345.737 968.462 347.364 968.789 349.108C969.284 351.716 968.06 355.138 967.583 357.964C965.933 366.989 965.259 376.165 965.572 385.334C955.023 381.007 941.842 378.928 929.777 381.51C919.48 383.786 910.014 388.872 902.428 396.202C895.003 403.573 889.721 412.825 887.144 422.969C884.374 434.978 885.285 447.544 889.759 459.027C893.685 468.399 900.166 476.477 908.46 482.339C917.032 488.62 926.123 492.787 939.463 493.24C966.954 494.079 981.953 479.999 992.351 462.213C1000.07 471.161 1006.19 480.402 1013.67 488.578C1021.14 496.754 1030.17 503.773 1038.8 511.118C1047.48 518.469 1056.61 525.258 1066.15 531.445C1070.97 534.59 1075.88 537.659 1080.83 540.669C1090.33 546.539 1101.85 551.881 1106.98 562.203C1113.59 575.495 1106.59 589.222 1098.53 596.215C1093.81 600.433 1087.73 602.814 1081.4 602.924C1074.53 603.175 1067.86 601.146 1061.7 599.1C1055.66 597.104 1049.55 594.521 1044.2 592.861C1037.94 590.916 1031.31 589.071 1024.49 588.836C1009.85 588.333 1000 596.719 993.122 605.138C989.552 609.507 986.243 614.27 984.274 620.03C982.179 626.169 982.229 633.657 982.464 641.766C982.69 649.489 982.925 657.338 983.302 664.709C983.712 673.556 982.464 678.436 978.878 683.828C972.828 692.876 961.667 699.761 946.903 699.526C939.262 699.409 934.913 696.692 930.011 692.683C921.146 685.421 913.496 677.304 904.874 670.143C896.252 662.982 887.278 656.063 876.922 650.42C856.36 639.175 830.879 633.112 799.064 633.112C766.788 633.112 741.945 639.636 721.441 650.822C706.183 659.158 693.388 670.537 680.82 681.849C676.63 685.589 672.784 689.564 668.352 693.119C663.274 697.203 658.557 699.56 650.857 699.56C636.755 699.56 625.334 692.381 619.687 683.057C616.444 677.69 615.497 672.34 615.866 663.535C616.059 659.502 615.866 655.543 616.067 651.661C616.536 640.76 618.17 628.106 614.458 619.259C612.16 613.977 609.05 609.088 605.241 604.769C598.412 596.735 588.651 587.897 573.669 588.668C566.849 589.021 560.388 590.974 554.397 593.096C549.068 594.974 542.667 597.347 536.701 599.335C530.425 601.414 523.965 603.528 516.793 603.159C510.514 602.851 504.54 600.36 499.9 596.115C493.968 590.639 488.765 582.304 489.846 570.958C490.885 560.057 496.809 554.824 504.09 549.625C508.849 546.271 513.793 543.336 518.77 540.401C523.747 537.466 528.615 534.422 533.45 531.344C543.013 525.175 552.079 518.267 560.564 510.682C564.821 506.942 569.228 503.336 573.435 499.613C577.641 495.89 581.981 492.234 585.701 488.142C592.405 480.829 597.625 472.528 604.202 464.998C604.998 464.092 605.602 462.616 607.018 462.381C611.448 471.42 618.262 479.075 626.725 484.519C635.246 490.028 646.206 493.651 659.906 493.173C672.893 492.72 682.412 488.469 690.908 482.272C699.087 476.324 705.484 468.251 709.409 458.926C713.749 448.402 714.805 434.113 711.822 422.701C709.124 412.571 703.276 402.508 696.505 396.202C686.04 386.45 671.042 378.316 649.851 380.907C645.527 381.425 641.276 382.438 637.182 383.925C636.031 384.479 634.815 384.884 633.562 385.133C633.707 375.901 633.034 366.674 631.551 357.561C631.007 354.458 629.8 351.322 630.546 348.706C631.049 346.962 633.546 345.352 635.573 344.077C641.707 340.373 648.254 337.401 655.08 335.222C662.202 332.798 669.5 330.643 676.027 327.574C678.063 326.61 680.552 325.578 681.256 323.381C678.742 322.14 676.002 322.493 673.614 322.778C668.704 323.373 664.355 324.455 659.37 325.394C656.956 325.847 654.066 326.467 651.728 325.797C648.435 324.857 647.061 319.709 645.494 315.935C640.902 304.866 635.59 292.933 631.618 281.923C625.929 266.125 620.139 249.815 616.536 233.018C612.581 214.57 612.011 193.212 614.525 174.252C618.271 146.085 628.166 123.938 641.673 105.624C646.139 99.5865 651.058 93.8843 656.152 88.115C676.128 65.541 700.678 47.1262 735.585 39.814C753.055 36.1579 773.29 35.5541 794.104 34.5814C803.824 34.1285 816.627 34.6988 826.279 35.4199C836.46 36.1495 846.029 37.2061 855.438 38.64C874.274 41.5079 890.379 47.0927 903.902 55.1429C917.426 63.193 928.939 73.5912 939.697 84.3247C950.641 95.4034 959.921 108.013 967.248 121.758C975.435 136.827 981.075 153.148 983.939 170.059C987.039 189.069 987.097 210.931 983.335 229.597C981.524 238.301 979.242 246.901 976.498 255.357C971.404 271.584 966.033 287.34 959.405 303.055C957.98 306.409 955.819 310.174 954.176 314.124C952.249 318.778 951.478 325.646 946.535 326.199C944.222 326.459 941.767 325.662 939.295 325.193C932.927 323.96 925.076 321.729 917.912 323.147Z" fill="black"/>
<path fill-rule="evenodd" clip-rule="evenodd" d="M654.476 396.806C673.798 395.38 686.559 406.248 693.087 418.541C695.67 423.394 697.168 428.75 697.477 434.239C698.315 447.505 693.288 457.014 687.054 464.025C680.593 471.32 671.62 475.974 659.906 476.905C654.521 477.354 649.101 476.692 643.982 474.962C638.863 473.231 634.153 470.467 630.143 466.842C622.904 460.084 618.094 451.899 617.072 439.673C615.949 426.189 621.228 417.091 627.328 410.055C630.492 406.421 634.312 403.416 638.59 401.2C643.514 398.626 648.929 397.128 654.476 396.806V396.806ZM646.834 436.218C646.24 444.101 652.507 448.486 659.101 446.885C666.182 445.166 669.659 436.344 665.737 430.382C664.162 427.984 659.872 426.03 655.079 426.759C650.077 427.547 647.203 431.355 646.834 436.252V436.218Z" fill="black"/>
<path fill-rule="evenodd" clip-rule="evenodd" d="M938.625 396.806C957.897 395.381 970.725 406.198 977.235 418.542C979.854 423.382 981.365 428.744 981.659 434.24C982.346 447.573 977.554 456.956 971.202 464.025C964.692 471.271 955.877 475.966 944.054 476.906C938.671 477.338 933.255 476.67 928.139 474.94C923.022 473.209 918.311 470.455 914.292 466.843C907.086 460.185 902.193 451.749 901.221 439.674C900.132 426.139 905.452 416.974 911.477 410.089C914.643 406.458 918.463 403.454 922.738 401.234C927.661 398.649 933.076 397.14 938.625 396.806ZM932.592 443.296C936.002 448.655 945.16 448.135 949.283 443.095C952.635 438.978 952.073 431.967 948.445 428.839C946.912 427.498 943.418 426.19 939.228 426.827C932.299 427.841 928.428 436.764 932.592 443.296V443.296Z" fill="black"/>
</g>
<path fill-rule="evenodd" clip-rule="evenodd" d="M1040.28 833.743C1034.72 843.147 1035.36 863.087 1035.36 879.373C1035.36 930.451 1035.04 980.263 1035.03 1031.69C1035.03 1062.55 1035.03 1102.67 1035.03 1133.45C1035.03 1150.72 1037.21 1165.01 1045.21 1174.16C1052.99 1183.05 1066.95 1186.85 1083.29 1186.96C1097.84 1187.06 1109.56 1180.03 1117.75 1170.55C1125.85 1161.18 1131.62 1150.26 1134.17 1136.08C1136.77 1121.58 1135.81 1104.1 1135.81 1086.84C1135.81 1035.24 1136.46 987.098 1136.47 935.507C1136.47 920.891 1136.24 903.155 1136.14 884.954C1136.03 864.862 1137.55 841.498 1128.26 831.774C1117.98 821.015 1090.9 822.018 1072.13 822.912C1058.99 823.536 1045.76 824.494 1040.28 833.743ZM1072.13 774H1109.55C1121.1 775.116 1133.26 777.438 1142.38 781.22C1160.74 788.845 1174.2 803.855 1179.47 823.568C1182.33 834.263 1182.1 846.112 1182.1 860.006C1182.09 939.072 1182.1 1019.88 1182.1 1098.66C1182.1 1112.44 1182.38 1125.56 1181.44 1137.72C1178.59 1174.6 1167 1204.21 1143.69 1219.46C1135.73 1224.66 1125.96 1227.74 1114.47 1229.97C1103.42 1232.1 1090.84 1233.7 1077.71 1233.25C1052.62 1232.38 1030.92 1226.28 1015.66 1215.85C1007.82 1210.49 1001.17 1203.23 997.28 1194.51C993.26 1185.5 991.06 1174.76 989.403 1162.34C986.256 1138.74 986.45 1112.51 986.448 1085.85C986.448 1059.31 986.724 1033.04 986.448 1006.74C986.175 980.759 986.066 953.908 987.105 927.958C988.165 901.488 988.368 875.952 990.716 851.798C991.86 840.012 993.474 828.424 995.967 817.331C998.422 806.412 1001.54 796.39 1008.77 790.412C1016.05 784.398 1024.7 779.856 1035.69 777.611C1046.4 775.42 1058.47 774.727 1072.13 774Z" fill="black"/>
<path fill-rule="evenodd" clip-rule="evenodd" d="M46.9425 819.957V952.905C57.7763 953.495 68.2702 953.284 77.7999 951.593C86.9425 949.97 95.8477 947.28 101.108 941.744C110.922 931.417 109.97 909.536 109.97 889.221C109.97 869.655 109.48 850.885 102.091 838.011C92.6919 821.635 72.0397 818.657 47.2717 818.973C46.8869 819.027 46.9147 819.491 46.9425 819.957ZM0 1229.31V775.313C40.96 773.626 78.3322 776.748 107.344 786.801C122.358 792.005 135.828 799.035 141.813 812.407C147.832 825.858 149.649 843.423 151.003 863.288C152.341 882.901 152.269 903.029 151.003 921.392C150.329 931.154 149.341 939.403 147.064 947.325C140.635 969.69 125.841 987.896 102.091 992.625C86.8569 995.661 67.2097 996.243 50.5538 997.222C49.6921 997.274 47.8341 996.619 47.2717 997.879C48.4798 1074.22 47.74 1152.94 46.9425 1229.31H0Z" fill="black"/>
<path fill-rule="evenodd" clip-rule="evenodd" d="M1599 853.11V897.1H1520.87V1229.64C1520.85 1229.84 1520.82 1230.02 1520.54 1229.96C1505.99 1229.75 1490.56 1230.4 1476.55 1229.64V897.1C1450.73 896.88 1424.03 897.536 1398.75 896.771V853.11H1599Z" fill="black"/>
<path fill-rule="evenodd" clip-rule="evenodd" d="M1196.54 853.439H1237.57C1237.58 908.295 1237.57 963.191 1237.57 1018.89C1237.58 1058.51 1235.68 1103.02 1240.86 1139.03C1242.53 1150.68 1245.13 1162.46 1249.72 1171.21C1256.39 1183.91 1271.96 1188.32 1287.8 1189.59C1324.79 1192.54 1341 1167 1344.59 1134.11C1346.41 1117.42 1345.58 1097.79 1345.58 1078.96C1345.57 1003.33 1345.58 928.265 1345.58 853.439H1390.22C1390.22 931.971 1390.22 1013.62 1390.22 1091.44C1390.22 1112.86 1390.66 1132.15 1388.25 1149.21C1383.54 1182.52 1370.28 1211.57 1342.95 1223.07C1336.13 1225.94 1327.98 1227.78 1319.31 1229.31C1311.03 1230.77 1301.98 1231.88 1292.39 1231.93C1272.82 1232.04 1256.04 1229.18 1241.18 1223.4C1227.06 1217.9 1214.26 1209.46 1207.37 1197.47C1200.09 1184.76 1197.76 1167.98 1196.21 1148.88C1194.77 1131.19 1194.57 1110.81 1194.57 1091.11C1194.57 1012.15 1195.49 932.405 1196.21 854.423C1196.18 853.959 1196.16 853.493 1196.54 853.439Z" fill="black"/>
<path fill-rule="evenodd" clip-rule="evenodd" d="M204.182 907.452V979.167C215.181 979.923 228.313 979.147 238.324 978.181C242.23 977.805 246.021 977.61 248.829 976.541C257.187 973.355 260.637 961.713 261.63 949.622C262.596 937.849 261.937 930.005 258.02 921.897C254.608 914.839 253.46 910.851 245.414 908.996C235.555 906.718 216.864 906.355 204.512 906.468C204.129 906.522 204.155 906.988 204.182 907.452ZM341.567 1228.98C326.686 1229.74 310.383 1229.09 294.954 1229.31C272.782 1158.58 250.469 1087.99 228.645 1016.92H205.168C204.403 1087.06 205.059 1158.62 204.841 1229.31H159.866V866.898C196.09 866.898 233.804 865.585 256.049 870.509C275.095 874.726 288.638 887.315 295.442 903.992C302.741 921.882 305.955 951.752 300.206 971.296C295.083 988.715 286.678 1004.1 273.449 1010.68C272.848 1010.98 273.887 1011.99 274.272 1012.98C296.609 1085.08 318.957 1157.15 341.567 1228.98Z" fill="black"/>
<path fill-rule="evenodd" clip-rule="evenodd" d="M957.561 1013.31H913.573C913.703 990.735 914.95 969.855 913.9 947.325C913.19 932.05 910.045 921.811 898.144 916.795C888.993 912.94 874.264 912.857 860.721 912.857C842.277 912.857 825.324 913.115 818.702 923.688C811.39 935.369 813.451 962.196 813.451 981.465C813.451 1023.75 813.12 1063.69 813.122 1107.19C813.124 1128.41 812.023 1151.6 818.375 1164.97C824.3 1177.44 837.315 1182.99 853.171 1184.66C870.227 1186.46 885.636 1183.42 895.519 1174.16C914.967 1155.92 914.533 1123.42 913.573 1083.88C897.924 1083.12 880.856 1083.77 864.661 1083.56V1038.26C895.737 1037.71 929.111 1037.71 960.186 1038.26C958.326 1074.33 962.622 1109.75 959.203 1141.99C955.94 1172.74 945.837 1199.27 926.376 1214.53C916.447 1222.32 903.537 1226.42 887.967 1228.98C839.382 1236.96 787.971 1224.86 774.058 1189.92C764.084 1164.86 764.537 1129.09 764.54 1094.06C764.54 1076.32 764.867 1058.78 764.867 1041.54C764.867 1023.81 764.067 1006.24 764.54 989.341C765.529 953.799 763.877 919.403 775.701 895.129C781.608 883.002 791.26 875.275 803.93 870.836C816.814 866.325 831.987 865.448 850.216 864.601C870.456 863.658 895.643 863.624 911.602 868.21C928.628 873.105 940.845 882.608 948.698 895.459C957.503 909.863 959.209 927.819 958.217 949.622C957.272 970.404 957.864 991.108 957.561 1013.31Z" fill="black"/>
<path fill-rule="evenodd" clip-rule="evenodd" d="M707.748 865.585H751.081C751.846 985.732 751.19 1107.3 751.408 1227.99C737.399 1228.76 721.973 1228.11 707.421 1228.32C706.651 1227.53 707.801 1224.3 705.778 1225.7C704.382 1225.01 704.594 1223.27 704.138 1222.08C674.598 1146.02 645.746 1068.27 616.488 991.311C615.723 1070.21 616.379 1150.52 616.161 1229.96H572.171V867.227H616.161C616.373 868.655 615.731 870.937 616.488 871.822C618.342 870.616 618.15 871.788 618.787 872.808C619.899 874.582 620.407 877.744 621.415 880.357C649.958 954.584 678.951 1031.78 706.764 1105.55C707.527 1026.55 706.873 946.119 707.091 866.571C707.076 866.008 707.335 865.72 707.748 865.585Z" fill="black"/>
<path fill-rule="evenodd" clip-rule="evenodd" d="M448.087 906.29C444.416 929.538 440.272 956.585 436.597 979.831H472.708C469.034 956.585 464.991 929.436 461.217 906.29C458.113 906.25 452.276 906.32 448.087 906.29ZM412.962 866.241H496.672C518.102 987.391 540.041 1108.02 561.339 1229.31H515.382C503.298 1157.36 491.08 1089.81 479.272 1017.58H430.36C417.937 1089.31 406.263 1157.5 393.922 1229.31H347.965C369.522 1108.17 390.918 986.887 412.962 866.241Z" fill="black"/>
<defs>
<clipPath id="clip0_2907_1479">
<rect width="685" height="734" fill="white" transform="translate(457)"/>
</clipPath>
</defs>
</svg>
