<svg width="685" height="734" viewBox="0 0 685 734" fill="none" xmlns="http://www.w3.org/2000/svg">
<g clip-path="url(#clip0_2908_1480)">
<path fill-rule="evenodd" clip-rule="evenodd" d="M327.183 0.334993C350.441 -0.631367 373.737 0.71695 396.729 4.36008C418.296 7.78979 437.216 13.0895 454.041 20.6617C487.825 35.8648 510.415 60.9964 529.251 92.5095C538.409 107.822 546.579 123.721 552.578 142.823C558.444 161.38 562.466 183.636 559.818 207.627C558.581 218.17 556.779 228.639 554.422 238.989C548.942 264.029 541.66 286.837 533.106 309.629C532.343 311.667 531.706 313.998 530.692 316.472C529.93 318.334 527.844 321.503 528.078 323.315C528.221 324.38 529.394 325.101 530.692 326.132C537.295 331.407 543.94 338.367 542.557 350.887C541.862 357.193 540.68 363.239 539.742 369.402C538.845 375.272 537.53 381.544 537.53 388.32C537.53 390.71 538.887 391.615 540.747 393.351C544.216 396.588 547.526 402.441 549.394 406.433C553.265 414.676 557.287 423.657 558.444 433.803C558.703 436.101 558.745 438.29 559.047 440.445C559.558 444.059 561.795 447.195 563.672 450.306C574.439 468.117 589.119 482.893 605.5 495.589C622.635 508.871 639.938 518.154 656.981 531.211C667.79 539.487 678.766 548.611 683.324 563.009C685.645 570.363 685.394 579.621 683.525 588.568C680.174 604.501 672.758 616.928 662.209 625.398C656.522 630.177 649.638 633.308 642.301 634.454C634.232 635.762 625.543 634.454 616.56 632.442C608.55 630.664 601.378 628.693 593.434 626.404C586.136 624.299 577.439 621.037 569.303 622.781C561.678 624.417 556.961 630.597 555.059 637.674C552.913 645.531 553.869 655.376 554.656 664.642C555.444 673.908 556.123 683.611 554.455 691.61C551.263 706.914 540.127 715.929 528.112 723.207C517.395 729.681 498.995 736.985 481.86 732.666C474.318 730.763 467.967 727.174 462.152 723.442C444.389 711.937 429.005 698.52 411.409 686.78C405.644 682.931 399.678 678.948 393.109 676.114C386.305 673.179 377.75 672.022 369.581 670.68C360.868 669.22 352.067 668.346 343.237 668.064C333.794 667.837 325.139 669.296 316.492 670.479C307.844 671.661 299.843 673.045 292.963 675.912C279.356 681.59 268.413 689.933 257.168 698.252C246.502 706.151 235.383 715.3 223.585 722.805C217.661 726.57 211.754 730.587 204.314 732.465C187.556 736.658 168.912 730.293 157.659 723.811C151.653 720.384 146.168 716.114 141.37 711.132C136.519 706.067 132.388 700.642 130.712 692.65C127.311 676.474 133.787 654.076 129.874 638.513C128.048 631.175 124.009 624.844 116.602 622.815C108.65 620.643 98.6879 624.148 92.0684 626.035C84.3849 628.24 77.5895 630.597 69.5457 632.475C61.1667 634.446 51.8409 635.829 43.4032 634.689C36.0103 633.657 29.0488 630.591 23.2936 625.834C12.8953 617.448 5.11118 604.87 1.57524 589.407C-0.402202 580.736 -0.728983 570.9 1.57524 563.411C3.74733 556.6 7.38547 550.349 12.2333 545.097C21.4502 535.034 33.6584 526.749 44.4087 519.337C56.1393 511.328 67.1996 504.704 79.0307 495.823C94.9508 483.874 110.485 468.637 121.06 450.742C122.786 447.833 125.157 444.671 125.886 441.082C126.682 437.191 126.724 432.906 127.696 428.403C129.307 420.99 131.876 413.819 135.338 407.07C137.608 402.483 140.047 397.536 143.784 393.787C145.87 391.708 147.043 391.272 147.403 387.917C147.722 384.966 147.219 381.628 146.8 378.257C145.702 369.259 143.448 359.415 142.376 350.685C140.935 338.51 147.713 331.214 154.442 325.931C155.447 325.143 156.955 324.338 157.056 323.315C157.207 322.107 155.422 318.719 154.643 316.875C148.547 302.095 143.31 286.976 138.957 271.592C133.462 252.912 129.163 233.899 126.087 214.671C122.736 193.246 125.199 169.741 129.908 151.88C134.485 134.556 141.171 117.861 149.817 102.17C165.921 72.5434 186.793 46.2629 215.776 28.7119C241.173 13.3327 273.348 5.32443 310.693 1.54252C316.165 0.98907 321.754 0.594947 327.183 0.334993ZM544.568 220.709C545.498 215.728 546.621 210.713 547.182 205.614C549.084 188.315 546.453 172.206 542.993 157.716C538.627 139.943 531.79 122.871 522.682 107C505.254 76.3085 484.65 50.7408 452.868 34.7495C437.208 26.867 419.051 21.5338 398.572 18.0454C373.729 13.9184 348.518 12.4343 323.362 13.6178C283.101 15.6219 248.412 24.7539 221.809 40.3846C207.69 48.678 195.834 59.8057 185.612 72.5853C175.389 85.365 166.097 98.6562 158.464 113.842C150.83 129.029 144.295 145.825 140.566 164.357C138.441 174.563 137.363 184.959 137.349 195.384C137.407 205.782 139.225 216.071 141.169 225.773C148.71 263.375 160.265 297.529 174.149 329.621C167.111 333.025 160.743 335.944 157.257 341.696C154.215 346.669 156.05 352.388 157.056 358.601C157.626 362.09 158.145 365.754 158.665 369.268C159.746 376.572 161.581 384.362 160.274 391.607C159.72 394.676 157.366 396.337 155.447 398.249C146.901 406.802 139.527 419.045 138.756 434.877C138.622 437.552 139.284 440.411 138.957 443.732C138.647 446.927 136.62 450.189 134.935 453.191C133.251 456.193 131.525 459.12 129.908 461.644C112.044 489.601 86.5802 507.873 59.1222 525.643C48.4893 532.485 36.9179 540.032 27.7512 548.351C23.0087 552.669 18.5343 557.659 15.6855 563.244C12.5685 569.474 12.4512 578.681 14.0767 586.153C15.5604 592.904 18.2883 599.32 22.1206 605.071C25.4722 610.253 29.8963 615.469 35.7951 618.555C49.478 625.725 67.7191 619.578 80.2038 615.939C93.1829 612.165 110.812 605.239 124.847 612.115C131.24 615.243 135.53 620.081 138.723 625.196C142.493 631.242 143.75 637.406 144.152 646.731C144.89 662.202 138.781 682.789 145.761 695.434C148.727 700.809 154.048 705.396 159.235 708.918C164.745 712.765 170.77 715.814 177.132 717.975C184.514 720.49 192.549 721.53 200.459 719.585C207.506 717.857 212.475 714.277 218.357 710.361C229.35 702.998 239.246 695.116 249.527 687.619C260.025 679.971 270.86 672.047 282.305 666.286C293.751 660.525 308.532 656.659 325.139 655.217C341.511 653.791 359.451 654.311 375.815 657.431C391.006 660.332 402.77 666.051 414.023 673.128C430.781 683.644 445.687 695.417 461.281 706.738C471.428 714.109 482.513 723.325 500.494 720.222C514.571 717.799 527.441 709.631 535.284 700.935C539.792 695.904 542.23 690.202 542.322 681.011C542.498 664.5 537.806 645.431 543.328 631.1C548.288 618.245 558.628 608.995 575.101 609.364C583.22 609.549 590.284 611.88 597.423 613.993C604.562 616.106 611.541 618.119 618.739 619.863C627.118 621.851 634.927 623.058 642.267 621.272C648.766 619.68 654.603 616.091 658.958 611.008C662.988 606.488 666.223 600.526 668.611 593.7C670.94 587.042 672.918 578.723 671.627 570.556C670.538 563.654 666.323 557.617 662.176 553.047C657.743 548.158 652.959 544.544 647.697 540.569C637.198 532.661 625.727 525.777 615.32 518.833C594.314 504.72 573.962 488.1 558.879 467.245C555.019 461.961 551.589 456.375 548.623 450.541C547.802 449.068 547.129 447.518 546.612 445.912C546.169 443.863 545.966 441.769 546.009 439.673C545.968 435.496 545.632 431.326 545.004 427.196C542.808 413.938 536.156 404.454 528.313 396.605C527.031 395.322 525.053 394.089 524.894 393.184C523.486 385.033 525.221 377.385 526.503 369.436C527.081 365.888 527.517 361.939 528.112 358.165C528.74 354.207 529.955 350.191 529.519 346.493C528.975 341.855 525.238 338.476 522.079 336.027C519.484 334.11 516.725 332.426 513.834 330.996C512.796 330.562 511.843 329.949 511.018 329.185C526.339 294.44 537.597 258.04 544.568 220.709Z" fill="black"/>
<path fill-rule="evenodd" clip-rule="evenodd" d="M460.912 323.147C461.197 325.906 464.121 326.56 466.14 327.574C478.91 333.998 495.065 336.597 506.963 344.48C508.865 345.737 511.462 347.364 511.789 349.108C512.284 351.716 511.06 355.138 510.583 357.964C508.933 366.989 508.258 376.165 508.572 385.334C498.022 381.007 484.842 378.928 472.777 381.51C462.48 383.786 453.013 388.872 445.427 396.202C438.003 403.573 432.721 412.825 430.144 422.969C427.374 434.978 428.285 447.544 432.758 459.027C436.685 468.399 443.166 476.477 451.46 482.339C460.032 488.62 469.123 492.787 482.463 493.24C509.954 494.079 524.953 479.999 535.351 462.213C543.068 471.161 549.193 480.402 556.667 488.578C564.141 496.754 573.174 503.773 581.804 511.118C590.479 518.469 599.614 525.258 609.153 531.445C613.971 534.59 618.881 537.659 623.833 540.669C633.327 546.539 644.848 551.881 649.976 562.203C656.587 575.495 649.59 589.222 641.53 596.215C636.808 600.433 630.731 602.814 624.403 602.924C617.532 603.175 610.862 601.146 604.696 599.1C598.663 597.104 592.546 594.521 587.2 592.861C580.941 590.916 574.305 589.071 567.493 588.836C552.855 588.333 543.001 596.719 536.122 605.138C532.552 609.507 529.243 614.27 527.274 620.03C525.179 626.169 525.229 633.657 525.464 641.766C525.69 649.489 525.925 657.338 526.302 664.709C526.712 673.556 525.464 678.436 521.878 683.828C515.828 692.876 504.667 699.761 489.903 699.526C482.262 699.409 477.913 696.692 473.011 692.683C464.146 685.421 456.496 677.304 447.874 670.143C439.252 662.982 430.278 656.063 419.922 650.42C399.36 639.175 373.879 633.112 342.064 633.112C309.788 633.112 284.945 639.636 264.441 650.822C249.183 659.158 236.388 670.537 223.82 681.849C219.63 685.589 215.784 689.564 211.352 693.119C206.274 697.203 201.557 699.56 193.856 699.56C179.755 699.56 168.334 692.381 162.687 683.057C159.444 677.69 158.497 672.34 158.866 663.535C159.058 659.502 158.866 655.543 159.067 651.661C159.536 640.76 161.17 628.106 157.458 619.259C155.16 613.977 152.05 609.088 148.241 604.769C141.412 596.735 131.651 587.897 116.669 588.668C109.849 589.021 103.388 590.974 97.3974 593.096C92.0683 594.974 85.6668 597.347 79.7009 599.335C73.4251 601.414 66.9649 603.528 59.7924 603.159C53.5139 602.851 47.5396 600.36 42.9004 596.115C36.968 590.639 31.7647 582.304 32.8456 570.958C33.8846 560.057 39.8085 554.824 47.0899 549.625C51.8491 546.271 56.7928 543.336 61.7699 540.401C66.747 537.466 71.6152 534.422 76.4499 531.344C86.0128 525.175 95.0786 518.267 103.564 510.682C107.821 506.942 112.228 503.336 116.434 499.613C120.641 495.89 124.981 492.234 128.701 488.142C135.405 480.829 140.625 472.528 147.202 464.998C147.998 464.092 148.601 462.616 150.017 462.381C154.448 471.42 161.262 479.075 169.725 484.519C178.246 490.028 189.206 493.651 202.906 493.173C215.893 492.72 225.412 488.469 233.908 482.272C242.086 476.324 248.484 468.251 252.409 458.926C256.749 448.402 257.805 434.113 254.822 422.701C252.124 412.571 246.275 402.508 239.505 396.202C229.04 386.45 214.041 378.316 192.851 380.907C188.526 381.425 184.276 382.438 180.182 383.925C179.031 384.479 177.815 384.884 176.562 385.133C176.706 375.901 176.033 366.674 174.551 357.561C174.007 354.458 172.8 351.322 173.546 348.706C174.048 346.962 176.545 345.352 178.573 344.077C184.707 340.373 191.254 337.401 198.079 335.222C205.202 332.798 212.5 330.643 219.027 327.574C221.063 326.61 223.552 325.578 224.255 323.381C221.742 322.14 219.002 322.493 216.614 322.778C211.704 323.373 207.355 324.455 202.369 325.394C199.956 325.847 197.066 326.467 194.728 325.797C191.435 324.857 190.061 319.709 188.494 315.935C183.902 304.866 178.59 292.933 174.618 281.923C168.929 266.125 163.139 249.815 159.536 233.018C155.581 214.57 155.011 193.212 157.525 174.252C161.27 146.085 171.166 123.938 184.673 105.624C189.139 99.5865 194.058 93.8843 199.152 88.115C219.127 65.541 243.678 47.1262 278.585 39.814C296.055 36.1579 316.29 35.5541 337.104 34.5814C346.823 34.1285 359.627 34.6988 369.279 35.4199C379.46 36.1495 389.028 37.2061 398.438 38.64C417.274 41.5079 433.378 47.0927 446.902 55.1429C460.426 63.193 471.939 73.5912 482.697 84.3247C493.641 95.4034 502.921 108.013 510.247 121.758C518.435 136.827 524.075 153.148 526.938 170.059C530.039 189.069 530.097 210.931 526.335 229.597C524.524 238.301 522.241 246.901 519.498 255.357C514.403 271.584 509.032 287.34 502.405 303.055C500.98 306.409 498.818 310.174 497.176 314.124C495.249 318.778 494.478 325.646 489.535 326.199C487.222 326.459 484.767 325.662 482.295 325.193C475.927 323.96 468.076 321.729 460.912 323.147Z" fill="black"/>
<path fill-rule="evenodd" clip-rule="evenodd" d="M197.476 396.806C216.798 395.38 229.559 406.248 236.086 418.541C238.669 423.394 240.168 428.75 240.477 434.239C241.315 447.505 236.287 457.014 230.054 464.025C223.593 471.32 214.619 475.974 202.906 476.905C197.521 477.354 192.101 476.692 186.982 474.962C181.863 473.231 177.153 470.467 173.143 466.842C165.904 460.084 161.094 451.899 160.072 439.673C158.949 426.189 164.228 417.091 170.328 410.055C173.492 406.421 177.312 403.416 181.589 401.2C186.514 398.626 191.929 397.128 197.476 396.806V396.806ZM189.834 436.218C189.239 444.101 195.507 448.486 202.101 446.885C209.181 445.166 212.659 436.344 208.737 430.382C207.162 427.984 202.872 426.03 198.079 426.759C193.077 427.547 190.203 431.355 189.834 436.252V436.218Z" fill="black"/>
<path fill-rule="evenodd" clip-rule="evenodd" d="M481.625 396.806C500.896 395.381 513.725 406.198 520.235 418.542C522.854 423.382 524.365 428.744 524.659 434.24C525.346 447.573 520.554 456.956 514.202 464.025C507.692 471.271 498.877 475.966 487.054 476.906C481.671 477.338 476.255 476.67 471.139 474.94C466.022 473.209 461.31 470.455 457.292 466.843C450.086 460.185 445.193 451.749 444.221 439.674C443.132 426.139 448.452 416.974 454.477 410.089C457.643 406.458 461.463 403.454 465.738 401.234C470.661 398.649 476.076 397.14 481.625 396.806ZM475.592 443.296C479.002 448.655 488.16 448.135 492.283 443.095C495.634 438.978 495.073 431.967 491.445 428.839C489.912 427.498 486.418 426.19 482.228 426.827C475.299 427.841 471.428 436.764 475.592 443.296V443.296Z" fill="black"/>
</g>
<defs>
<clipPath id="clip0_2908_1480">
<rect width="685" height="734" fill="white"/>
</clipPath>
</defs>
</svg>
